<?xml version="1.0" encoding="utf-8"?>
<!-- Generator: Adobe Illustrator 18.1.1, SVG Export Plug-In . SVG Version: 6.00 Build 0)  -->
<svg version="1.2" baseProfile="tiny" id="Layer_1" xmlns="http://www.w3.org/2000/svg" xmlns:xlink="http://www.w3.org/1999/xlink"
	 x="0px" y="0px" viewBox="0 0 65.8 128.6" xml:space="preserve">
<g>
	<path fill="#BADBA6" d="M64,6.8c-0.6-1-1.3-1.9-2.1-2.8c-0.7-0.3-1.4-0.7-1.8-1.2c-0.3-0.3-0.6-0.7-0.8-1.1C58.5,1.3,57.8,1,57,0.7
		c-3.7-0.2-7.4-0.3-11.2-0.2c-2.2,0-4.5-0.1-6.8-0.2c-4.8,0-9.7,0.2-14.5,0.2c-0.6,0-1.1-0.1-1.6-0.2c-0.3,0-0.5,0.1-0.8,0.1
		c-0.8,0.1-1.6,0.1-2.3-0.1c-0.3,0.1-0.6,0.1-1,0.1c-3.1,0-6.3-0.4-9.4,0c-1.2,0.2-2.3,0.4-3.4,1C5.8,1.6,4.7,2.4,3.7,3.1
		C3.5,3.9,3.1,4.6,2.4,5.2C2.2,6,1.9,6.6,1.5,7.2c0,0.2,0,0.3,0,0.5v50.5l62.4-7.6c0-2.6,0-5.2,0-7.7c0-0.5,0.1-0.9,0.2-1.3V6.8z"/>
</g>
<g>
	<path fill="#63BDA1" d="M64,6.8c-0.8-1.3-1.8-2.5-2.8-3.6c-0.8-0.8-1.8-1.4-2.8-1.9L36,43.1l27.9,6.2c0-2.2,0-4.3,0-6.5
		c0-0.5,0.1-0.9,0.2-1.3V6.8z"/>
</g>
<g>
	<path fill="#A1C9A7" d="M1.5,96.5c0.2,4.5,0.4,8.9,0.5,13.4l62.3-7.6c-0.1-6.1-0.2-12.1-0.2-18.2c0-0.4,0-0.8,0.1-1.2
		c-0.1-11.3-0.4-22.5-0.4-33.8L1.5,35.6v32.9c0,0.6-0.1,1.2-0.3,1.7C1.9,79,2.6,87.9,1.5,96.5z"/>
</g>
<g>
	<path fill="#BADBA6" d="M64.4,114.9c0-5.9-0.1-11.7-0.2-17.5L44.4,70.5L2,109.6c0,1,0.1,2,0.1,2.9c0,0.8-0.1,1.5-0.4,2.2
		c0,0.6-0.1,1.2-0.2,1.7c1.1,4.1,1.8,8,5.1,10.8c0.5,0.2,1,0.4,1.4,0.7h30c6.6,0,13.2,0.1,19.8,0.2c1.1-0.8,2.3-1.4,3.5-1.8
		c0.2-0.2,0.4-0.4,0.7-0.6c1.5-2.5,2.4-4.6,2.5-7.6c0-0.6,0.1-1.1,0.3-1.6C64.5,116,64.4,115.5,64.4,114.9z"/>
</g>
<g>
	<path fill="#63BDA1" d="M1.5,96.5c0.2,4.3,0.4,8.7,0.5,13l42.4-39l-42.9-26v24c0,0.6-0.1,1.2-0.3,1.7C1.9,79,2.6,87.9,1.5,96.5z"/>
</g>
<image width="78" height="146" xlink:href="3C711C23.png"  transform="matrix(1 0 0 1 0.3247 -0.6593)">
</image>
<g>
	<g>
		<path fill="#008CA3" d="M1.7,31.8l-1,0c-0.4,0-0.6-0.3-0.7-0.6l0-6.7c0-0.4,0.3-0.6,0.6-0.7l1,0c0.4,0,0.6,0.3,0.7,0.6l0,6.7
			C2.3,31.5,2,31.8,1.7,31.8z"/>
	</g>
	<g>
		<path fill="#008CA3" d="M65.1,19.6l-1.1,0c-0.3,0-0.6-0.3-0.6-0.6l0-3c0-0.3,0.3-0.6,0.6-0.6l1.1,0c0.3,0,0.6,0.3,0.6,0.6l0,3
			C65.8,19.3,65.5,19.6,65.1,19.6z"/>
	</g>
	<g>
		<path fill="#008CA3" d="M65.1,32.8l-1,0c-0.4,0-0.6-0.3-0.7-0.6l0-6.7c0-0.4,0.3-0.6,0.6-0.7l1,0c0.4,0,0.6,0.3,0.7,0.6l0,6.7
			C65.8,32.5,65.5,32.8,65.1,32.8z"/>
	</g>
	<g>
		<path fill="#008CA3" d="M65.1,43.1l-1,0c-0.4,0-0.6-0.3-0.7-0.6l0-6.7c0-0.4,0.3-0.6,0.6-0.7l1,0c0.4,0,0.6,0.3,0.7,0.6l0,6.7
			C65.8,42.8,65.5,43.1,65.1,43.1z"/>
	</g>
	<g>
		<path fill="#008CA3" d="M55,0v1c4.7,0,8.6,3.8,8.6,8.6l0.2,109.4c0,2.3-0.9,4.4-2.5,6.1c-1.6,1.6-3.8,2.5-6.1,2.5l-44.3,0.1
			c-4.7,0-8.6-3.8-8.6-8.6L2.1,9.7c0-2.3,0.9-4.4,2.5-6.1C6.2,2,8.4,1.1,10.7,1.1L55,1L55,0 M55,0C55,0,55,0,55,0L10.7,0.1
			c-5.3,0-9.6,4.3-9.6,9.6L1.3,119c0,5.3,4.3,9.6,9.6,9.6c0,0,0,0,0,0l44.3-0.1c5.3,0,9.6-4.3,9.6-9.6L64.6,9.6
			C64.6,4.3,60.3,0,55,0L55,0z"/>
	</g>
	<g>
		<path fill="#B2B2B2" d="M21.6,10.4l-9.9,0C10.2,10.4,9,9.2,9,7.7l0-1.2c0-1.5,1.2-2.7,2.7-2.7l9.9,0c1.5,0,2.7,1.2,2.7,2.7l0,1.2
			C24.4,9.1,23.1,10.4,21.6,10.4z"/>
		<path fill="#008CA3" d="M11.7,10.9L11.7,10.9c-1.8,0-3.2-1.5-3.2-3.2l0-1.2c0-0.9,0.3-1.7,0.9-2.3s1.4-1,2.3-1l9.9,0
			c1.8,0,3.2,1.5,3.2,3.2l0,1.2c0,0.9-0.3,1.7-0.9,2.3c-0.6,0.6-1.4,1-2.3,1L11.7,10.9z M21.6,4.2l-9.9,0c-0.6,0-1.2,0.2-1.6,0.7
			c-0.4,0.4-0.7,1-0.7,1.6l0,1.2c0,1.2,1,2.2,2.2,2.2v0.5l0-0.5l9.9,0c0.6,0,1.2-0.2,1.6-0.7c0.4-0.4,0.7-1,0.7-1.6l0-1.2
			C23.9,5.2,22.8,4.2,21.6,4.2z"/>
	</g>
	<g>
		<circle fill="#706F6F" cx="12.5" cy="7" r="2.4"/>
	</g>
	<g>
		<circle fill="#878787" cx="12.5" cy="7" r="2.1"/>
	</g>
	<g>
		<circle fill="#9D9D9C" cx="20.9" cy="7.2" r="2"/>
	</g>
	<g>
		<circle fill="#DADADA" cx="20.9" cy="7.2" r="1.7"/>
	</g>
</g>
</svg>
