<?xml version="1.0" encoding="utf-8"?>
<!-- Generator: Adobe Illustrator 18.1.1, SVG Export Plug-In . SVG Version: 6.00 Build 0)  -->
<svg version="1.2" baseProfile="tiny" id="Layer_1" xmlns="http://www.w3.org/2000/svg" xmlns:xlink="http://www.w3.org/1999/xlink"
	 x="0px" y="0px" viewBox="0 0 36.9 72.2" xml:space="preserve">
<g>
	<g>
		<path fill="#7FBA3A" d="M35.9,28.3c0-8,0-16.1,0-24.1c-0.5-0.6-1-1.1-1.4-1.7c-0.5-0.6-1-1.2-1.5-1.7c-0.1-0.1-0.2-0.2-0.3-0.3
			c-1.2-0.3-2.6-0.2-4-0.3c-4.2-0.1-8.4,0-12.6,0c-0.5,0-1,0-1.6,0c-0.7,0.4-1.6,0.7-2.6,0.7c-0.8,0-1.6-0.2-2.2-0.5
			C8.4,0.5,7.2,0.6,5.9,0.6c-0.1,0-0.3,0-0.4,0C4.7,0.9,4,1.2,3.3,1.7C1.9,2.8,1.2,4.1,0.8,5.4C0.9,5.9,1,6.4,1,6.9
			c0,4.8,0,9.6,0,14.5c0.3,2.8,0.2,5.8,0.1,8.7c0.1,0.4,0.2,0.8,0.2,1.3c0,0.4,0,0.9,0,1.3L35.9,28.3z"/>
	</g>
	<g>
		<path fill="#4E9D66" d="M34.5,2.5c-0.5-0.6-1-1.2-1.5-1.7c-0.1-0.1-0.2-0.2-0.3-0.2L20.2,24.2l15.7,3.4c0-7.8,0-15.6,0-23.4
			C35.4,3.6,34.9,3.1,34.5,2.5z"/>
	</g>
	<g>
		<path fill="#8CC640" d="M1.1,30.1c0.1,0.4,0.2,0.9,0.2,1.3c0,0.7,0,1.5,0,2.2c0,0,0,0,0,0c0,2.3,0.2,4.5,0.1,6.8
			c0,0.3-0.1,0.7-0.1,1c0,5.8,0,11.5,0,17.3c0,0.1,0,0.2,0,0.3c0,0.1,0,0.1,0,0.2c0,0.9,0,1.7,0,2.6c0,0,0,0,0,0L36,57.3
			c0-9.9,0-19.9,0-29.8L1,20.2c0,0.5,0,0.9,0,1.4C1.2,24.3,1.2,27.2,1.1,30.1z"/>
	</g>
	<g>
		<path fill="#7FBA3A" d="M36,64.9c0-3.6,0-7.1,0-10.7L25,39.5L1.2,61.7c0,0.7,0,1.4,0,2.1c0,1,0,2,0,2.9C1.4,67.5,1.7,68.3,2,69
			c0.4,0.7,0.8,1.4,1.3,2.2c0,0,0,0,0,0c2.4,0.1,4.8,0.5,7.2,0.6c4.6,0.2,9.1-0.1,13.7-0.2c3.2-0.1,6.4-0.1,9.6-0.2
			c1-1.7,1.7-3.3,2.2-5.1C36,65.8,36,65.4,36,64.9z"/>
	</g>
	<g>
		<path fill="#4E9D66" d="M1.2,31.4c0,0.7,0,1.5,0,2.2c0,0,0,0,0,0c0,2.3,0.2,4.5,0.1,6.8c0,0.3-0.1,0.7-0.1,1c0,5.8,0,11.5,0,17.3
			c0,0.1,0,0.2,0,0.3c0,0.1,0,0.1,0,0.2c0,0.9,0,1.7,0,2.6c0,0,0,0,0,0L25,39.5L1.2,25.3c0,1.6,0,3.2-0.1,4.8
			C1.2,30.5,1.2,30.9,1.2,31.4z"/>
	</g>
	<g>
		<g>
			<path fill="#008CA3" d="M1,18l-0.6,0C0.2,18,0,17.8,0,17.6l0-3.7c0-0.2,0.2-0.4,0.4-0.4l0.6,0c0.2,0,0.4,0.2,0.4,0.4l0,3.7
				C1.3,17.8,1.2,18,1,18z"/>
		</g>
		<g>
			<path fill="#008CA3" d="M36.5,10.9l-0.6,0c-0.2,0-0.3-0.1-0.3-0.3l0-1.7c0-0.2,0.1-0.3,0.3-0.3l0.6,0c0.2,0,0.3,0.1,0.3,0.3
				l0,1.7C36.8,10.8,36.7,10.9,36.5,10.9z"/>
		</g>
		<g>
			<path fill="#008CA3" d="M36.5,18.3l-0.6,0c-0.2,0-0.4-0.2-0.4-0.4l0-3.7c0-0.2,0.2-0.4,0.4-0.4l0.6,0c0.2,0,0.4,0.2,0.4,0.4
				l0,3.7C36.9,18.2,36.7,18.3,36.5,18.3z"/>
		</g>
		<g>
			<path fill="#008CA3" d="M36.5,24.1l-0.6,0c-0.2,0-0.4-0.2-0.4-0.4l0-3.7c0-0.2,0.2-0.4,0.4-0.4l0.6,0c0.2,0,0.4,0.2,0.4,0.4
				l0,3.7C36.9,23.9,36.7,24.1,36.5,24.1z"/>
		</g>
		<g>
			<path fill="#008CA3" d="M30.8,0v1c2.4,0,4.3,1.9,4.4,4.3l0.5,61.3c0,1.2-0.4,2.3-1.3,3.1c-0.8,0.8-1.9,1.3-3.1,1.3L6.4,71.2
				c-2.4,0-4.3-1.9-4.4-4.3L1.6,5.6c0-2.4,1.9-4.4,4.3-4.4L30.7,1L30.8,0 M30.8,0C30.7,0,30.7,0,30.8,0L5.9,0.2
				c-3,0-5.3,2.4-5.3,5.4l0.5,61.3c0,2.9,2.4,5.3,5.4,5.3c0,0,0,0,0,0L31.3,72c3,0,5.3-2.4,5.3-5.4L36.1,5.3C36.1,2.4,33.7,0,30.8,0
				L30.8,0z"/>
		</g>
		<g>
			<path fill="#B2B2B2" d="M12.1,5.9L6.5,6C5.7,6,5,5.3,5,4.4l0-0.7c0-0.8,0.7-1.5,1.5-1.5l5.6,0c0.8,0,1.5,0.7,1.5,1.5l0,0.7
				C13.6,5.2,12.9,5.9,12.1,5.9z"/>
			<path fill="#008CA3" d="M6.5,6.5c-1.1,0-2-0.9-2-2l0-0.7c0-1.1,0.9-2,2-2.1l5.6,0c1.1,0,2,0.9,2.1,2l0,0.7c0,1.1-0.9,2-2,2.1
				L6.5,6.5z M12,2.7l-5.6,0c-0.6,0-1,0.5-1,1l0,0.7c0,0.6,0.5,1,1,1V6l0-0.5l5.6,0c0.6,0,1-0.5,1-1l0-0.7C13.1,3.1,12.6,2.7,12,2.7
				z"/>
		</g>
		<g>
			<circle fill="#706F6F" cx="7" cy="4.1" r="1.4"/>
		</g>
		<g>
			<circle fill="#878787" cx="7" cy="4.1" r="1.2"/>
		</g>
		<g>
			<circle fill="#9D9D9C" cx="11.7" cy="4.1" r="1.1"/>
		</g>
		<g>
			<circle fill="#DADADA" cx="11.7" cy="4.1" r="0.9"/>
		</g>
	</g>
</g>
</svg>
