<?xml version="1.0" encoding="utf-8"?>
<!-- Generator: Adobe Illustrator 18.1.1, SVG Export Plug-In . SVG Version: 6.00 Build 0)  -->
<svg version="1.2" baseProfile="tiny" id="Layer_1" xmlns="http://www.w3.org/2000/svg" xmlns:xlink="http://www.w3.org/1999/xlink"
	 x="0px" y="0px" viewBox="0 0 53.4 104.4" xml:space="preserve">
<g>
	<g>
		<g>
			<path fill="#F4AF14" d="M45.3,104.2c0.6-0.6,1.4-1,2.4-1.2c0.7-0.8,1.5-1.6,2.1-2.4c0.2-0.3,0.5-0.5,0.8-0.8
				c0-8.7,0.1-17.5,0.1-26.2c0-1.1,0.3-2.1,0.8-2.8C51.3,63.4,51.1,56,51,48.5c0-1,0.2-1.8,0.6-2.5c-0.1-7.1-0.4-14.4-0.2-21.5
				L0.8,61.2c0,1.2,0,2.4,0,3.5c0,0.2,0,0.3,0,0.5c0,0.1,0,0.2,0,0.4c0,11-0.4,22-0.5,33c1.2,1.3,2.3,2.7,3.5,3.9
				c1.1,0.6,2.2,1,3.4,1.3c7-1.3,15-0.4,22.2,0.3c1.7,0,3.5,0,5.2-0.1c2.2-0.1,4.4-0.2,6.6,0c0.8,0.1,1.6,0.2,2.4,0.3
				C44.3,104.3,44.8,104.2,45.3,104.2z"/>
		</g>
		<g>
			<path fill="#F7EE89" d="M0.8,65.2c0,0.1,0,0.2,0,0.4c0,11-0.4,22-0.4,33c1.2,1.3,2.3,2.6,3.5,3.9c0.3,0.2,0.7,0.3,1,0.5
				l26.2-58.8L0.8,45.2c0,6.5,0.1,13,0.1,19.5C0.9,64.9,0.9,65,0.8,65.2z"/>
		</g>
		<g>
			<path fill="#F4AF14" d="M5.8,0.8C5.6,0.9,5.4,1.1,5.2,1.2C4.6,2,4,2.4,3.3,2.7C2.9,3.3,2.5,3.9,2,4.3C1.8,5.7,1.6,7.1,1.4,8.6
				c0.1,0.4,0.1,0.7,0.1,1.1v9.8c0,1.2-0.3,2.1-0.9,2.8c0.1,2,0.3,4.1,0.8,6C1.9,29.8,1.7,31,1.2,32c0,0,0,0.1,0,0.1
				c0.2,3.8-0.1,7.8-0.3,11.6c0,0.3-0.1,0.5-0.1,0.8c0,4.2,0.1,8.4,0.1,12.5l30.2-12.8l20.7-26.2c0.1-1,0.2-2,0.3-2.9L5.8,0.8z"/>
		</g>
		<g>
			<path fill="#F7EE89" d="M49.2,1.9c-0.1,0-0.2-0.1-0.4-0.2c-0.1,0-0.1,0-0.2,0c-1.3,0-2.3-0.4-3-1c-3.9-0.1-7.8-0.3-11.7-0.4
				c-3,0-6,0-9,0c-0.4,0.1-0.8,0.1-1.3,0.1c-2.7,0-5.3-0.1-8-0.1c-0.2,0-0.4,0-0.6,0c0,0-0.1,0-0.1,0c-0.8,0-1.6,0-2.4,0
				c-1.6,0-6.2-0.5-7.3,0.9c-0.5,0.6-1.1,1-1.6,1.3l11.8,17.7l36.3-7.9c0-1.3,0.3-2.5,0.7-3.7c-0.4-2.2-1.1-4.2-2.6-5.9
				C49.6,2.5,49.4,2.2,49.2,1.9z"/>
		</g>
		<g>
			<path fill="#E29E14" d="M52.1,14.4c-0.3-0.6-0.4-1.2-0.4-1.9c0-0.1,0-0.1,0-0.2l-36.3,7.9l15.7,23.9l20.4-19.7
				C51.5,21,51.7,17.7,52.1,14.4z"/>
		</g>
	</g>
	<g>
		<g>
			<path fill="#008CA3" d="M1.3,25.6l-0.8,0C0.2,25.5,0,25.3,0,25l0.1-5.4c0-0.3,0.2-0.5,0.5-0.5l0.8,0c0.3,0,0.5,0.2,0.5,0.5
				L1.9,25C1.9,25.3,1.6,25.6,1.3,25.6z"/>
		</g>
		<g>
			<path fill="#008CA3" d="M52.8,16.4l-0.9,0c-0.3,0-0.5-0.2-0.5-0.5l0-2.5c0-0.3,0.2-0.5,0.5-0.5l0.9,0c0.3,0,0.5,0.2,0.5,0.5
				l0,2.5C53.3,16.2,53.1,16.4,52.8,16.4z"/>
		</g>
		<g>
			<path fill="#008CA3" d="M52.7,27.1l-0.8,0c-0.3,0-0.5-0.2-0.5-0.5l0.1-5.4c0-0.3,0.2-0.5,0.5-0.5l0.8,0c0.3,0,0.5,0.2,0.5,0.5
				l-0.1,5.4C53.2,26.9,53,27.1,52.7,27.1z"/>
		</g>
		<g>
			<path fill="#008CA3" d="M52.6,35.4l-0.8,0c-0.3,0-0.5-0.2-0.5-0.5l0.1-5.4c0-0.3,0.2-0.5,0.5-0.5l0.8,0c0.3,0,0.5,0.2,0.5,0.5
				l-0.1,5.4C53.1,35.2,52.9,35.4,52.6,35.4z"/>
		</g>
		<image width="53" height="106" xlink:href="D01C84B9.png"  transform="matrix(1 0 0 1 -0.137 -0.6303)">
		</image>
		<g>
			<path fill="#008CA3" d="M8.9,1L8.9,1L8.9,1l35.9,0.5c1.8,0,3.5,0.7,4.7,2s1.9,3,1.9,4.8l-1.1,88.5c0,3.7-3.1,6.7-6.7,6.7l-0.1,0
				L7.7,103c-1.8,0-3.5-0.7-4.7-2S1,98,1,96.2L2.2,7.7C2.2,4,5.2,1,8.9,1 M8.9,0C4.7,0,1.2,3.4,1.2,7.6L0,96.1
				c-0.1,4.3,3.4,7.8,7.6,7.8l35.9,0.5c0,0,0.1,0,0.1,0c4.2,0,7.7-3.4,7.7-7.6l1.1-88.5c0.1-4.3-3.4-7.8-7.6-7.8L8.9,0
				C9,0,8.9,0,8.9,0L8.9,0z"/>
		</g>
		<g>
			<path fill="#B2B2B2" d="M17.7,8.5l-8-0.1c-1.2,0-2.2-1-2.2-2.2l0-1c0-1.2,1-2.2,2.2-2.2l8,0.1c1.2,0,2.2,1,2.2,2.2l0,1
				C20,7.5,19,8.5,17.7,8.5z"/>
			<path fill="#008CA3" d="M17.8,9L17.8,9L9.7,8.9C9,8.9,8.3,8.6,7.8,8C7.3,7.5,7,6.8,7,6.1l0-1c0-1.5,1.2-2.7,2.7-2.7l8.1,0.1
				c0.7,0,1.4,0.3,1.9,0.8c0.5,0.5,0.8,1.2,0.8,1.9l0,1C20.5,7.8,19.2,9,17.8,9z M9.8,3.5C8.8,3.5,8,4.2,8,5.2l0,1
				C8,6.6,8.2,7,8.5,7.3c0.3,0.3,0.7,0.5,1.2,0.5l8,0.1l0,0.5V8c0.9,0,1.7-0.8,1.7-1.7l0-1c0-0.5-0.2-0.9-0.5-1.2
				c-0.3-0.3-0.7-0.5-1.2-0.5L9.8,3.5C9.8,3.5,9.8,3.5,9.8,3.5z"/>
		</g>
		<g>
			<circle fill="#706F6F" cx="10.4" cy="5.7" r="2"/>
		</g>
		<g>
			<circle fill="#878787" cx="10.4" cy="5.7" r="1.7"/>
		</g>
		<g>
			<circle fill="#9D9D9C" cx="17.2" cy="5.9" r="1.6"/>
		</g>
		<g>
			<circle fill="#DADADA" cx="17.2" cy="5.9" r="1.4"/>
		</g>
	</g>
</g>
</svg>
