<?xml version="1.0" encoding="utf-8"?>
<!-- Generator: Adobe Illustrator 18.1.1, SVG Export Plug-In . SVG Version: 6.00 Build 0)  -->
<svg version="1.2" baseProfile="tiny" xmlns="http://www.w3.org/2000/svg" xmlns:xlink="http://www.w3.org/1999/xlink" x="0px"
	 y="0px" viewBox="0 0 112 112" xml:space="preserve">
<g id="Layer_2">
	<g>
		<g>
			<g>
				<path fill="#FFFFFF" d="M6.5,80.3c0.1,0.1,0.1,0.4,0,0.5c0.3,0.3,0.6,0.7,0.8,1.2c0.1,0.2,0.2,0.4,0.3,0.6L8,82.2
					c0.9-0.9,0.9-2.4,0-3.3l-4.7-4.7c0.5,1.7,1.2,3.2,1.9,4.8L6.5,80.3z"/>
			</g>
		</g>
		<g>
			<g>
				<path fill="#FFFFFF" d="M26,99.9c0,0.1,0,0.2-0.1,0.3l-1.7,1.7c0.2,0,0.3,0.1,0.5,0.2c0.5,0.2,1,0.4,1.5,0.7l1.1-1.1
					c0.4-0.4,0.7-1,0.7-1.7c0-0.6-0.2-1.2-0.7-1.7L14,84.8c-0.4-0.4-1-0.7-1.7-0.7c-0.6,0-1.2,0.2-1.7,0.7l-1.2,1.2
					c0.3,0.6,0.7,1.2,1,1.8l1.6-1.6c0.1-0.1,0.2-0.1,0.3-0.1s0.2,0,0.3,0.1l13.4,13.4C26,99.7,26,99.8,26,99.9z"/>
			</g>
		</g>
		<g>
			<g>
				<path fill="#FFFFFF" d="M37.7,108.7c0,0,0.1,0,0.1,0l-4.3-4.3c-0.9-0.9-2.5-0.9-3.3,0l-0.1,0.1c2.5,1.3,4.9,2.6,7.2,4.2
					C37.4,108.6,37.5,108.6,37.7,108.7z"/>
			</g>
		</g>
		<g>
			<g>
				<path fill="#FFFFFF" d="M8,39.8L4.3,36c-0.1,0.5-0.2,0.9-0.3,1.4c0,0.4,0,0.8,0,1.1l2.6,2.6c0.1,0.1,0.1,0.2,0.1,0.3
					s0,0.2-0.1,0.3l-3.8,3.8c-0.3,1.3-0.7,2.6-0.9,3.8L8,43.1c0.4-0.4,0.7-1,0.7-1.7C8.7,40.8,8.4,40.2,8,39.8z"/>
			</g>
		</g>
		<g>
			<g>
				<path fill="#FFFFFF" d="M27.5,59.3L14.2,45.9c-0.9-0.9-2.5-0.9-3.3,0L-0.1,56.8c0.4,0.5,0.7,1.2,0.8,2l11.5-11.5
					c0.1-0.1,0.2-0.1,0.3-0.1s0.2,0,0.3,0.1l13.4,13.4c0.1,0.1,0.1,0.4,0,0.5L12.7,74.6c-0.2,0.2-0.3,0.2-0.5,0L0.8,63.2
					c0,0.9,0,1.9,0,2.8l10,10c0.4,0.4,1,0.7,1.7,0.7s1.2-0.2,1.7-0.7l13.4-13.4C28.4,61.7,28.4,60.2,27.5,59.3z"/>
			</g>
		</g>
		<g>
			<g>
				<path fill="#FFFFFF" d="M31.8,96.1c-0.6,0-1.2-0.2-1.7-0.7L16.8,82c-0.4-0.4-0.7-1-0.7-1.7c0-0.6,0.2-1.2,0.7-1.7l13.4-13.4
					c0.9-0.9,2.5-0.9,3.3,0l13.4,13.4c0.4,0.4,0.7,1,0.7,1.7c0,0.6-0.2,1.2-0.7,1.7L33.5,95.4C33.1,95.8,32.5,96.1,31.8,96.1z
					 M31.8,66.6c-0.1,0-0.2,0-0.3,0.1L18.2,80.1c-0.1,0.1-0.1,0.2-0.1,0.3s0,0.2,0.1,0.3L31.6,94c0.2,0.2,0.3,0.2,0.5,0l13.4-13.4
					c0.1-0.1,0.1-0.2,0.1-0.3s0-0.2-0.1-0.3L32.1,66.7C32,66.6,31.9,66.6,31.8,66.6z"/>
			</g>
		</g>
		<g>
			<g>
				<path fill="#FFFFFF" d="M45,110.2c1.1,0.2,2.3,0.4,3.5,0.6l-10.7-10.7c-0.1-0.1-0.1-0.4,0-0.5l13.4-13.4
					c0.1-0.1,0.2-0.1,0.3-0.1s0.2,0,0.3,0.1L65,99.6c0.1,0.1,0.1,0.4,0,0.5l-11.4,11.4c0.9,0.1,1.7,0.2,2.6,0.2l10.2-10.2
					c0.9-0.9,0.9-2.4,0-3.3L53.1,84.8c-0.9-0.9-2.5-0.9-3.3,0L36.3,98.2c-0.9,0.9-0.9,2.4,0,3.3L45,110.2z"/>
			</g>
		</g>
		<g>
			<g>
				<path fill="#FFFFFF" d="M65,111.2l5.5-5.5c0.1-0.1,0.2-0.1,0.3-0.1c0.1,0,0.2,0,0.3,0.1l2.7,2.7c0.3-0.1,0.5-0.2,0.8-0.3
					c0.5-0.2,0.9-0.3,1.4-0.3l-3.5-3.5c-0.9-0.9-2.5-0.9-3.3,0l-7.4,7.4C62.8,111.5,63.9,111.3,65,111.2z"/>
			</g>
		</g>
		<g>
			<g>
				<path fill="#FFFFFF" d="M27.5,20.2l-6.7-6.7c-0.3,0.6-0.7,1.2-1.2,1.7l6.5,6.5c0.1,0.1,0.1,0.2,0.1,0.3s0,0.2-0.1,0.3L12.7,35.5
					c-0.2,0.2-0.3,0.2-0.5,0L6.7,30c0,0.1,0,0.2,0,0.3c0,0.9-0.1,1.6-0.4,2.2l4.5,4.5c0.4,0.4,1,0.7,1.7,0.7c0.6,0,1.2-0.2,1.7-0.7
					l13.4-13.4c0.4-0.4,0.7-1,0.7-1.7C28.2,21.3,28,20.7,27.5,20.2z"/>
			</g>
		</g>
		<g>
			<g>
				<path fill="#FFFFFF" d="M32,57.2c-0.6,0-1.2-0.2-1.7-0.7L17,43.1c-0.9-0.9-0.9-2.4,0-3.3l13.4-13.4c0.9-0.9,2.5-0.9,3.3,0
					l13.4,13.4c0.9,0.9,0.9,2.4,0,3.3L33.7,56.5C33.2,56.9,32.7,57.2,32,57.2z M32,27.7c-0.1,0-0.2,0-0.3,0.1L18.4,41.2
					c-0.1,0.1-0.1,0.4,0,0.5l13.4,13.4c0.2,0.2,0.3,0.2,0.5,0l13.4-13.4c0.1-0.1,0.1-0.4,0-0.5L32.3,27.8
					C32.2,27.7,32.1,27.7,32,27.7z"/>
			</g>
		</g>
		<g>
			<g>
				<path fill-rule="evenodd" fill="#00C2F6" d="M65.7,61.8L52.3,75.1c-0.5,0.5-1.4,0.5-1.9,0L37,61.8c-0.5-0.5-0.5-1.4,0-1.9
					l13.4-13.4c0.5-0.5,1.4-0.5,1.9,0l13.4,13.4C66.2,60.4,66.2,61.2,65.7,61.8z"/>
			</g>
			<g>
				<path fill="#FFFFFF" d="M51.4,76.5c-0.6,0-1.2-0.2-1.7-0.7L36.3,62.5c-0.4-0.4-0.7-1-0.7-1.7c0-0.6,0.2-1.2,0.7-1.7l13.4-13.4
					c0.9-0.9,2.5-0.9,3.3,0l13.4,13.4c0.4,0.4,0.7,1,0.7,1.7c0,0.6-0.2,1.2-0.7,1.7L53.1,75.8C52.6,76.3,52,76.5,51.4,76.5z
					 M51.4,47.1c-0.1,0-0.2,0-0.3,0.1L37.8,60.5c-0.1,0.1-0.1,0.2-0.1,0.3c0,0.1,0,0.2,0.1,0.3l13.4,13.4c0.2,0.2,0.3,0.2,0.5,0
					L65,61c0.1-0.1,0.1-0.2,0.1-0.3c0-0.1,0-0.2-0.1-0.3L51.6,47.2C51.5,47.1,51.4,47.1,51.4,47.1z"/>
			</g>
		</g>
		<g>
			<g>
				<path fill="#FFFFFF" d="M70.9,96.1c-0.6,0-1.2-0.2-1.7-0.7L55.9,82c-0.9-0.9-0.9-2.4,0-3.3l13.4-13.4c0.9-0.9,2.5-0.9,3.3,0
					L86,78.6c0.4,0.4,0.7,1,0.7,1.7c0,0.6-0.2,1.2-0.7,1.7L72.6,95.4C72.1,95.8,71.5,96.1,70.9,96.1z M70.9,66.6
					c-0.1,0-0.2,0-0.3,0.1L57.3,80.1c-0.1,0.1-0.1,0.4,0,0.5l13.4,13.4c0.2,0.2,0.3,0.2,0.5,0l13.4-13.4c0.1-0.1,0.1-0.2,0.1-0.3
					s0-0.2-0.1-0.3L71.2,66.7C71.1,66.6,71,66.6,70.9,66.6z"/>
			</g>
		</g>
		<g>
			<g>
				<path fill="#FFFFFF" d="M81.4,104.7l-4.8-4.8c-0.1-0.1-0.1-0.2-0.1-0.3s0-0.2,0.1-0.3L90,86.1c0.1-0.1,0.2-0.1,0.3-0.1
					s0.2,0,0.3,0.1l6.8,6.8c0.5-0.5,1-0.9,1.6-1.2l-7-7c-0.4-0.4-1-0.7-1.7-0.7c-0.6,0-1.2,0.2-1.7,0.7L75.3,98
					c-0.4,0.4-0.7,1-0.7,1.7c0,0.6,0.2,1.2,0.7,1.7l4.3,4.3C80.1,105.3,80.7,104.9,81.4,104.7z"/>
			</g>
		</g>
		<g>
			<g>
				<path fill="#FFFFFF" d="M47.4,1.1c-0.5,0.2-1.1,0.4-1.7,0.4c-0.2,0-0.4,0-0.6,0l0.6,0.6c0.1,0.1,0.1,0.4,0,0.5L32.3,16
					c-0.2,0.2-0.3,0.2-0.5,0l-6.1-6.1c-0.5,0.5-1.1,0.8-1.7,1.1l6.4,6.4c0.4,0.4,1,0.7,1.7,0.7s1.2-0.2,1.7-0.7L47.1,4
					C47.9,3.2,48,2,47.4,1.1z"/>
			</g>
		</g>
		<g>
			<g>
				<path fill-rule="evenodd" fill="#00C2F6" d="M65.9,22.9L52.6,36.2c-0.5,0.5-1.4,0.5-1.9,0L37.3,22.9c-0.5-0.5-0.5-1.4,0-1.9
					L50.6,7.6C51.2,7,52,7,52.6,7.6l13.4,13.4C66.5,21.5,66.5,22.3,65.9,22.9z"/>
			</g>
			<g>
				<path fill="#FFFFFF" d="M51.6,37.6c-0.6,0-1.2-0.2-1.7-0.7L36.5,23.6c-0.9-0.9-0.9-2.4,0-3.3L49.9,6.8c0.9-0.9,2.5-0.9,3.3,0
					l13.4,13.4c0.4,0.4,0.7,1,0.7,1.7c0,0.6-0.2,1.2-0.7,1.7L53.3,36.9C52.8,37.4,52.2,37.6,51.6,37.6z M51.6,8.2
					c-0.1,0-0.2,0-0.3,0.1L38,21.6c-0.1,0.1-0.1,0.4,0,0.5l13.4,13.4c0.2,0.2,0.3,0.2,0.5,0l13.4-13.4c0.1-0.1,0.1-0.2,0.1-0.3
					s0-0.2-0.1-0.3L51.8,8.3C51.8,8.2,51.6,8.2,51.6,8.2z"/>
			</g>
		</g>
		<g>
			<g>
				<path fill-rule="evenodd" fill="#00C2F6" d="M85.3,42.2L71.9,55.6c-0.5,0.5-1.4,0.5-1.9,0L56.6,42.2c-0.5-0.5-0.5-1.4,0-1.9
					L70,26.9c0.5-0.5,1.4-0.5,1.9,0l13.4,13.4C85.8,40.8,85.8,41.7,85.3,42.2z"/>
			</g>
			<g>
				<path fill="#FFFFFF" d="M70.9,57c-0.6,0-1.2-0.2-1.7-0.7L55.9,42.9c-0.4-0.4-0.7-1-0.7-1.7c0-0.6,0.2-1.2,0.7-1.7l13.4-13.4
					c0.9-0.9,2.5-0.9,3.3,0L86,39.6c0.9,0.9,0.9,2.4,0,3.3L72.6,56.3C72.2,56.7,71.6,57,70.9,57z M70.9,27.5c-0.1,0-0.2,0-0.3,0.1
					L57.3,41c-0.1,0.1-0.1,0.2-0.1,0.3s0,0.2,0.1,0.3l13.4,13.4c0.2,0.2,0.3,0.2,0.5,0l13.4-13.4c0.1-0.1,0.1-0.4,0-0.5L71.2,27.6
					C71.1,27.5,71,27.5,70.9,27.5z"/>
			</g>
		</g>
		<g>
			<g>
				<path fill="#FFFFFF" d="M90.5,76.5c-0.6,0-1.2-0.2-1.7-0.7L75.4,62.4c-0.4-0.4-0.7-1-0.7-1.7c0-0.6,0.2-1.2,0.7-1.7l13.4-13.4
					c0.9-0.9,2.5-0.9,3.3,0l13.4,13.4c0.4,0.4,0.7,1,0.7,1.7c0,0.6-0.2,1.2-0.7,1.7L92.2,75.8C91.7,76.3,91.1,76.5,90.5,76.5z
					 M90.5,47c-0.1,0-0.2,0-0.3,0.1L76.9,60.5c-0.1,0.1-0.1,0.2-0.1,0.3s0,0.2,0.1,0.3l13.4,13.4c0.2,0.2,0.3,0.2,0.5,0L104.1,61
					c0.1-0.1,0.1-0.2,0.1-0.3s0-0.2-0.1-0.3L90.7,47.2C90.6,47.1,90.5,47,90.5,47z"/>
			</g>
		</g>
		<g>
			<g>
				<path fill="#FFFFFF" d="M109.6,66.5c0.1-0.1,0.1-0.1,0.2-0.1c0-0.7,0.1-1.4,0.4-2c-0.7-0.1-1.5,0.1-2,0.6L94.8,78.5
					c-0.4,0.4-0.7,1-0.7,1.7c0,0.6,0.2,1.2,0.7,1.7l6,6c0.3-0.6,0.8-1.1,1.3-1.5l-5.9-5.9c-0.1-0.1-0.1-0.2-0.1-0.3s0-0.2,0.1-0.3
					L109.6,66.5z"/>
			</g>
		</g>
		<g>
			<g>
				<path fill="#FFFFFF" d="M80.5,6.9L71.4,16c-0.2,0.2-0.3,0.2-0.5,0L57.5,2.6c-0.1-0.1-0.1-0.2-0.1-0.4c-0.7-0.1-1.3-0.2-2-0.3
					c-0.1,0.7,0.1,1.5,0.7,2l13.4,13.4c0.4,0.4,1,0.7,1.7,0.7s1.2-0.2,1.7-0.7l9.7-9.7C81.8,7.4,81.2,7.2,80.5,6.9z"/>
			</g>
		</g>
		<g>
			<g>
				<path fill-rule="evenodd" fill="#00C2F6" d="M101.4,23.7c-1.6-1.6-3-3.5-4.4-5.2c-1.8-2.1-3.6-4-5.6-5.8
					c-0.1-0.1-0.2-0.1-0.3-0.2c-0.1,0-0.2-0.1-0.3-0.1c-0.8-0.1-1.6-0.7-2.2-1.3c-0.3-0.2-0.7-0.3-1-0.6c-0.3-0.2-0.5-0.4-0.8-0.6
					L76.1,20.7c-0.5,0.5-0.5,1.4,0,1.9L89.5,36c0.5,0.5,1.4,0.5,1.9,0L102,25.5C101.7,25,101.5,24.4,101.4,23.7z"/>
			</g>
			<g>
				<path fill="#FFFFFF" d="M101.6,24.5L90.7,35.3c-0.2,0.2-0.3,0.2-0.5,0L76.9,22c-0.1-0.1-0.1-0.2-0.1-0.3s0-0.2,0.1-0.3
					l10.9-10.9c0,0,0,0,0,0c-0.6-0.4-1-0.8-1.4-1.4L75.4,20c-0.4,0.4-0.7,1-0.7,1.7c0,0.6,0.2,1.2,0.7,1.7l13.4,13.4
					c0.4,0.4,1,0.7,1.7,0.7c0.6,0,1.2-0.2,1.7-0.7l10.4-10.4C102.1,25.8,101.8,25.2,101.6,24.5z"/>
			</g>
		</g>
		<g>
			<g>
				<path fill="#FFFFFF" d="M111,54.7c0-0.2,0-0.4,0-0.6l-0.7,0.7c-0.2,0.2-0.3,0.2-0.5,0L96.4,41.5c-0.1-0.1-0.1-0.4,0-0.5l9-9
					c-0.5-0.5-0.8-1.1-1-1.8L95,39.6c-0.9,0.9-0.9,2.4,0,3.3l13.4,13.4c0.4,0.4,1,0.7,1.7,0.7c0.4,0,0.9-0.1,1.2-0.4
					C111.1,56.1,110.9,55.4,111,54.7z"/>
			</g>
		</g>
	</g>
	<image width="230" height="230" xlink:href="DFBCDE12.png"  transform="matrix(0.48 0 0 0.48 1.0001 0.9997)">
	</image>
	<g>
		<path fill="#FFFFFF" d="M48.2,64.8c-0.3,0-0.5-0.1-0.7-0.3c-0.2-0.2-0.3-0.5-0.3-0.8l0.7-7.8c0.1-0.5,0.5-1,1.1-0.9
			c0.5,0,1,0.5,0.9,1.1l-0.6,6.6l6.6-0.6c0.6,0,1,0.4,1.1,0.9c0,0.5-0.4,1-0.9,1.1L48.2,64.8C48.3,64.8,48.3,64.8,48.2,64.8z"/>
	</g>
	<g>
		<path fill="#FFFFFF" d="M93.4,26.8C93.3,26.8,93.3,26.8,93.4,26.8c-0.6-0.1-1-0.5-1-1.1l0.6-6.6l-6.6,0.6c-0.6,0-1-0.4-1.1-0.9
			c0-0.6,0.4-1,0.9-1.1l7.8-0.7c0.3,0,0.6,0.1,0.8,0.3s0.3,0.5,0.3,0.8l-0.7,7.8C94.3,26.4,93.9,26.8,93.4,26.8z"/>
	</g>
	<g>
		<path fill="#FFFFFF" d="M50.2,27.7c-0.5,0-0.9-0.4-1-0.9L48.5,19c0-0.3,0.1-0.6,0.3-0.8s0.5-0.3,0.8-0.3l7.8,0.7
			c0.5,0,1,0.5,0.9,1.1c-0.1,0.5-0.5,1-1.1,0.9L50.6,20l0.6,6.6C51.3,27.2,50.9,27.7,50.2,27.7C50.3,27.7,50.2,27.7,50.2,27.7z"/>
	</g>
	<g>
		<path fill="#FFFFFF" d="M73.3,44.2C73.2,44.2,73.2,44.2,73.3,44.2l-7.9-0.7c-0.5,0-1-0.5-0.9-1.1c0.1-0.5,0.5-1,1.1-0.9l6.6,0.6
			l-0.6-6.6c0-0.6,0.4-1,0.9-1.1c0.6,0,1,0.4,1.1,0.9l0.7,7.8c0,0.3-0.1,0.6-0.3,0.8C73.8,44.1,73.5,44.2,73.3,44.2z"/>
	</g>
</g>
<g id="Layer_3">
	<g>
		<path fill="#FFFFFF" d="M56,112C25.1,112,0,86.9,0,56S25.1,0,56,0s56,25.1,56,56S86.9,112,56,112z M56,2C26.2,2,2,26.2,2,56
			s24.2,54,54,54s54-24.2,54-54S85.8,2,56,2z"/>
	</g>
</g>
</svg>
