<?xml version="1.0" encoding="utf-8"?>
<!-- Generator: Adobe Illustrator 18.1.1, SVG Export Plug-In . SVG Version: 6.00 Build 0)  -->
<svg version="1.2" baseProfile="tiny" xmlns="http://www.w3.org/2000/svg" xmlns:xlink="http://www.w3.org/1999/xlink" x="0px"
	 y="0px" viewBox="0 0 112 112" xml:space="preserve">
<g id="Layer_2">
	<image width="230" height="230" xlink:href="F23297DD.png"  transform="matrix(0.48 0 0 0.48 0.9996 0.9997)">
	</image>
	<g>
		<g>
			<g>
				<g>
					<path fill="#FFFFFF" d="M0.9,60l0.6,0.6c0.2,0.2,0.3,0.4,0.3,0.6s-0.1,0.5-0.3,0.6l-0.6,0.6c0,0.2,0,0.4,0,0.6
						c0,0.7,0.1,1.4,0.1,2.1l1.9-1.9c0.5-0.5,0.8-1.3,0.8-2s-0.3-1.5-0.8-2l-2.1-2.1C0.9,58.1,0.9,59,0.9,60z"/>
				</g>
			</g>
		</g>
		<g>
			<g>
				<g>
					<path fill="#FFFFFF" d="M22.4,39.7L9.2,26.4c-0.3,0.6-0.6,1.2-1.1,1.7l13,13c0.2,0.2,0.3,0.4,0.3,0.6s-0.1,0.5-0.3,0.6L8.4,55
						c-0.3,0.3-0.9,0.3-1.2,0l-5.6-5.6c0.1,0.8-0.1,1.6-0.5,2.4l4.6,4.6c0.5,0.5,1.3,0.8,2,0.8c0.8,0,1.5-0.3,2-0.8l12.7-12.7
						c0.5-0.5,0.8-1.3,0.8-2C23.3,41,23,40.2,22.4,39.7z"/>
				</g>
			</g>
		</g>
		<g>
			<g>
				<g>
					<path fill="#FFFFFF" d="M42,20.2L30.3,8.5c-0.1,0-0.1,0.1-0.2,0.1c-0.5,0.3-1.2,0.5-1.9,0.6l12.3,12.3c0.2,0.2,0.3,0.4,0.3,0.6
						s-0.1,0.5-0.3,0.6L27.9,35.5c-0.3,0.3-0.9,0.3-1.2,0L13,21.8c-0.3,0.6-0.8,1.1-1.3,1.5l13.6,13.6c0.5,0.5,1.3,0.8,2,0.8
						s1.5-0.3,2-0.8L42,24.2c0.5-0.5,0.8-1.3,0.8-2C42.8,21.4,42.5,20.7,42,20.2z"/>
				</g>
			</g>
		</g>
		<g>
			<g>
				<g>
					<path fill="#FFFFFF" d="M59.9,1.9l0.2,0.2c0.2,0.2,0.3,0.4,0.3,0.6s-0.1,0.5-0.3,0.6L47.4,16c-0.3,0.3-0.9,0.3-1.2,0L35.4,5.2
						c-0.5,0.5-1,0.9-1.6,1.2l11,11c0.5,0.5,1.3,0.8,2,0.8c0.8,0,1.5-0.3,2-0.8L61.5,4.7c0.5-0.5,0.8-1.3,0.8-2c0-0.5-0.1-1-0.4-1.4
						C61.3,1.7,60.6,1.9,59.9,1.9z"/>
				</g>
			</g>
		</g>
		<g>
			<g>
				<g>
					<path fill="#FFFFFF" d="M35.8,92.1l-26-26c-1.1-1.1-3-1.1-4.1,0l-3.5,3.5c0.3,0.6,0.6,1.3,0.9,1.9l4-4c0.2-0.2,0.4-0.3,0.6-0.3
						s0.5,0.1,0.6,0.3l26,26c0.3,0.3,0.3,0.9,0,1.2l-7.8,7.8c0.6,0.3,1.1,0.8,1.6,1.3l7.7-7.7C37,95,37,93.2,35.8,92.1z"/>
				</g>
				<g>
					<path fill="#FFFFFF" d="M5.8,79.6c0.7-1.2,0.6-2.7-0.4-3.7l-0.1-0.1c-0.2-0.2-0.5-0.4-0.8-0.6c0.4,1.3,0.7,2.7,1,4.1
						C5.6,79.3,5.7,79.4,5.8,79.6z"/>
				</g>
			</g>
		</g>
		<g>
			<g>
				<g>
					<path fill="#FFFFFF" d="M40.6,90.2c-0.8,0-1.5-0.3-2-0.8l-26-26c-0.5-0.5-0.8-1.3-0.8-2s0.3-1.5,0.8-2l12.7-12.7
						c1.1-1.1,3-1.1,4.1,0l26,26c0.5,0.5,0.8,1.3,0.8,2c0,0.8-0.3,1.5-0.8,2L42.7,89.3C42.1,89.9,41.4,90.2,40.6,90.2z M27.3,47.8
						c-0.2,0-0.5,0.1-0.6,0.3L14,60.7c-0.2,0.2-0.3,0.4-0.3,0.6s0.1,0.5,0.3,0.6l26,26c0.3,0.3,0.9,0.3,1.2,0l12.7-12.7
						c0.2-0.2,0.3-0.4,0.3-0.6s-0.1-0.5-0.3-0.6l-26-26C27.8,47.9,27.5,47.8,27.3,47.8z"/>
				</g>
				<g>
					<path fill="#FFFFFF" d="M19.8,64.5c-0.8,0-1.6-0.3-2.1-0.9l-0.1-0.1c-0.6-0.6-0.9-1.3-0.9-2.1c0-0.8,0.3-1.6,0.9-2.1l2.9-2.9
						c1.2-1.1,3.1-1.1,4.3,0l0.1,0.1c1.2,1.2,1.2,3.1,0,4.3L22,63.6C21.4,64.2,20.6,64.5,19.8,64.5z M22.6,57.4
						c-0.3,0-0.5,0.1-0.7,0.3L19,60.6c-0.2,0.2-0.3,0.5-0.3,0.7c0,0.3,0.1,0.5,0.3,0.7l0.1,0.1c0.4,0.4,1.1,0.4,1.5,0l2.9-2.9
						c0.4-0.4,0.4-1.1,0-1.5l-0.1-0.1C23.1,57.5,22.9,57.4,22.6,57.4z"/>
				</g>
			</g>
		</g>
		<g>
			<g>
				<g>
					<path fill-rule="evenodd" fill="#00C2F6" d="M74.2,56.4L61.5,69.1c-0.7,0.7-1.9,0.7-2.6,0l-26-26c-0.7-0.7-0.7-1.9,0-2.6
						l12.7-12.7c0.7-0.7,1.9-0.7,2.6,0l26,26C74.9,54.5,74.9,55.7,74.2,56.4z"/>
					<path fill="#FFFFFF" d="M60.2,70.6c-0.8,0-1.5-0.3-2-0.8l-26-26c-1.1-1.1-1.1-2.9,0-4.1l12.7-12.7c1.1-1.1,3-1.1,4.1,0l26,26
						c0.5,0.5,0.8,1.3,0.8,2s-0.3,1.5-0.8,2L62.2,69.8C61.7,70.3,61,70.6,60.2,70.6z M46.8,28.2c-0.2,0-0.5,0.1-0.6,0.3L33.6,41.1
						c-0.3,0.3-0.3,0.9,0,1.2l26,26c0.3,0.3,0.9,0.3,1.2,0l12.7-12.7c0.2-0.2,0.3-0.4,0.3-0.6s-0.1-0.5-0.3-0.6l-26-26
						C47.3,28.3,47.1,28.2,46.8,28.2z"/>
				</g>
				<g>
					<path fill="#FFFFFF" d="M39.4,44.9c-0.8,0-1.6-0.3-2.1-0.9l-0.1-0.1c-0.6-0.6-0.9-1.3-0.9-2.1c0-0.8,0.3-1.6,0.9-2.1l2.9-2.9
						c1.1-1.1,3.1-1.1,4.3,0l0.1,0.1c0.6,0.6,0.9,1.3,0.9,2.1c0,0.8-0.3,1.6-0.9,2.1L41.5,44C40.9,44.6,40.2,44.9,39.4,44.9z
						 M42.1,37.8c-0.3,0-0.5,0.1-0.7,0.3L38.5,41c-0.2,0.2-0.3,0.5-0.3,0.7c0,0.3,0.1,0.5,0.3,0.7l0.1,0.1c0.4,0.4,1.1,0.4,1.5,0
						l2.9-2.9c0.2-0.2,0.3-0.5,0.3-0.7c0-0.3-0.1-0.5-0.3-0.7l-0.1-0.1C42.7,37.9,42.4,37.8,42.1,37.8z"/>
				</g>
			</g>
		</g>
		<g>
			<g>
				<g>
					<path fill="#FFFFFF" d="M79.7,51.1c-0.8,0-1.5-0.3-2-0.8l-26-26c-0.5-0.5-0.8-1.3-0.8-2s0.3-1.5,0.8-2L64.3,7.6
						c1.1-1.1,3-1.1,4.1,0l26,26c1.1,1.1,1.1,2.9,0,4.1L81.7,50.3C81.2,50.8,80.5,51.1,79.7,51.1z M66.3,8.7c-0.2,0-0.5,0.1-0.6,0.3
						L53.1,21.6c-0.2,0.2-0.3,0.4-0.3,0.6s0.1,0.5,0.3,0.6l26,26c0.3,0.3,0.9,0.3,1.2,0L93,36.2c0.3-0.3,0.3-0.9,0-1.2L67,9
						C66.8,8.8,66.6,8.7,66.3,8.7z"/>
				</g>
				<g>
					<path fill="#FFFFFF" d="M58.8,25.4c-0.8,0-1.6-0.3-2.1-0.9l-0.1-0.1c-1.2-1.2-1.2-3.1,0-4.3l2.9-2.9c1.1-1.1,3.1-1.1,4.3,0
						l0.1,0.1c1.2,1.2,1.2,3.1,0,4.3L61,24.5C60.4,25.1,59.7,25.4,58.8,25.4z M61.6,18.3c-0.3,0-0.5,0.1-0.7,0.3L58,21.5
						c-0.4,0.4-0.4,1.1,0,1.5l0.1,0.1c0.4,0.4,1.1,0.4,1.5,0l2.9-2.9c0.4-0.4,0.4-1.1,0-1.5l-0.1-0.1C62.2,18.4,61.9,18.3,61.6,18.3
						z"/>
				</g>
			</g>
		</g>
		<g>
			<g>
				<g>
					<path fill="#FFFFFF" d="M99.8,29.3c-0.3,0.3-0.9,0.3-1.2,0L73.5,4.2c0,0-0.1,0-0.1,0c-1.2,0-2.2-0.4-2.9-1
						c0.1,0.6,0.3,1.2,0.8,1.6l26,26c0.5,0.5,1.3,0.8,2,0.8c0.8,0,1.5-0.3,2-0.8l2.2-2.2c-0.3-0.7-0.5-1.4-0.8-2.1L99.8,29.3z"/>
				</g>
			</g>
		</g>
		<g>
			<g>
				<g>
					<path fill="#FFFFFF" d="M54.8,111.1L42.8,99c-1.1-1.1-3-1.1-4.1,0l-7,7c0.7,0.3,1.4,0.5,2.1,0.8l6.4-6.4
						c0.2-0.2,0.4-0.3,0.6-0.3c0.2,0,0.5,0.1,0.6,0.3l10.9,10.9C53.1,111.3,54,111.2,54.8,111.1z"/>
				</g>
			</g>
		</g>
		<g>
			<g>
				<g>
					<path fill="#FFFFFF" d="M63,110.9C63,110.9,63,110.9,63,110.9L47,94.8c-0.3-0.3-0.3-0.9,0-1.2l12.7-12.7
						c0.2-0.2,0.4-0.3,0.6-0.3s0.5,0.1,0.6,0.3l23,23c0.7-0.3,1.4-0.5,2.2-0.7L62.3,79.5c-1.1-1.1-3-1.1-4.1,0L45.5,92.2
						c-1.1,1.1-1.1,2.9,0,4.1l14.7,14.7C61.2,110.9,62.1,110.9,63,110.9z"/>
				</g>
				<g>
					<path fill="#FFFFFF" d="M52.7,97.4c-0.8,0-1.6-0.3-2.1-0.9l-0.1-0.1c-1.2-1.2-1.2-3.1,0-4.3l2.9-2.9c1.1-1.1,3.2-1.1,4.3,0
						l0.1,0.1c1.2,1.2,1.2,3.1,0,4.3l-2.9,2.9C54.3,97.1,53.5,97.4,52.7,97.4z M55.5,90.3c-0.3,0-0.5,0.1-0.7,0.3l-2.9,2.9
						c-0.4,0.4-0.4,1.1,0,1.5l0.1,0.1c0.4,0.4,1.1,0.4,1.5,0l2.9-2.9c0.4-0.4,0.4-1.1,0-1.5l-0.1-0.1C56.1,90.4,55.8,90.3,55.5,90.3
						z"/>
				</g>
			</g>
		</g>
		<g>
			<g>
				<g>
					<path fill="#FFFFFF" d="M90.5,99.3l-24-24c-0.2-0.2-0.3-0.4-0.3-0.6s0.1-0.5,0.3-0.6l12.7-12.7c0.2-0.2,0.4-0.3,0.6-0.3
						s0.5,0.1,0.6,0.3l23.5,23.5c0.3-0.7,0.5-1.4,0.7-2.1L81.8,60c-1.1-1.1-3-1.1-4.1,0L65.1,72.6c-0.5,0.5-0.8,1.3-0.8,2
						s0.3,1.5,0.8,2L89,100.6C89.4,100.1,89.9,99.6,90.5,99.3z"/>
				</g>
				<g>
					<path fill="#FFFFFF" d="M72.3,77.8c-0.8,0-1.6-0.3-2.1-0.9L70,76.8c-0.6-0.6-0.9-1.3-0.9-2.1c0-0.8,0.3-1.6,0.9-2.1l2.9-2.9
						c1.1-1.1,3.1-1.1,4.3,0l0.1,0.1c0.6,0.6,0.9,1.3,0.9,2.1c0,0.8-0.3,1.6-0.9,2.1L74.4,77C73.9,77.5,73.1,77.8,72.3,77.8z
						 M75.1,70.7c-0.3,0-0.5,0.1-0.7,0.3L71.4,74c-0.2,0.2-0.3,0.5-0.3,0.7c0,0.3,0.1,0.5,0.3,0.7l0.1,0.1c0.4,0.4,1.1,0.4,1.5,0
						l2.9-2.9c0.2-0.2,0.3-0.5,0.3-0.7c0-0.3-0.1-0.5-0.3-0.7L75.8,71C75.6,70.8,75.3,70.7,75.1,70.7z"/>
				</g>
			</g>
		</g>
		<g>
			<g>
				<g>
					<path fill="#FFFFFF" d="M85.7,55.2c0-0.2,0.1-0.5,0.3-0.6l12.7-12.7c0.2-0.2,0.4-0.3,0.6-0.3s0.5,0.1,0.6,0.3l11.5,11.5
						c-0.3-1.2-0.6-2.4-0.7-3.6l-9.3-9.3c-1.1-1.1-3-1.1-4.1,0L84.6,53.1c-0.5,0.5-0.8,1.3-0.8,2c0,0.8,0.3,1.5,0.8,2l21.2,21.2
						c0.1-0.5,0.2-1.1,0.3-1.6c0-0.2,0.1-0.5,0.2-0.7L86,55.8C85.8,55.6,85.7,55.4,85.7,55.2z"/>
				</g>
				<g>
					<path fill="#FFFFFF" d="M91.8,58.4c-0.8,0-1.6-0.3-2.1-0.9l-0.1-0.1c-1.2-1.2-1.2-3.1,0-4.3l2.9-2.9c1.1-1.1,3.1-1.1,4.3,0
						l0.1,0.1c0.6,0.6,0.9,1.3,0.9,2.1c0,0.8-0.3,1.6-0.9,2.1l-2.9,2.9C93.3,58,92.6,58.4,91.8,58.4z M94.6,51.3
						c-0.3,0-0.5,0.1-0.7,0.3l-2.9,2.9c-0.4,0.4-0.4,1.1,0,1.5l0.1,0.1c0.4,0.4,1.1,0.4,1.5,0l2.9-2.9c0.2-0.2,0.3-0.5,0.3-0.7
						c0-0.3-0.1-0.5-0.3-0.7l-0.1-0.1C95.1,51.4,94.8,51.3,94.6,51.3z"/>
				</g>
			</g>
		</g>
		<g>
			<g>
				<g>
					<path fill="#FFFFFF" d="M105.5,36.2c-0.2-0.2-0.3-0.4-0.3-0.6s0.1-0.5,0.3-0.6l1.1-1.1c0-0.2-0.1-0.4-0.1-0.6
						c-0.4-0.3-0.8-0.6-1.1-1l-1.3,1.3c-0.5,0.5-0.8,1.3-0.8,2s0.3,1.5,0.8,2l5.3,5.3c-0.6-1.5-1.2-3-1.6-4.5L105.5,36.2z"/>
				</g>
			</g>
		</g>
	</g>
</g>
<g id="Layer_3">
	<g>
		<path fill="#FFFFFF" d="M56,112C25.1,112,0,86.9,0,56S25.1,0,56,0s56,25.1,56,56S86.9,112,56,112z M56,2C26.2,2,2,26.2,2,56
			s24.2,54,54,54s54-24.2,54-54S85.8,2,56,2z"/>
	</g>
</g>
</svg>
