<?xml version="1.0" encoding="utf-8"?>
<!-- Generator: Adobe Illustrator 18.1.1, SVG Export Plug-In . SVG Version: 6.00 Build 0)  -->
<svg version="1.2" baseProfile="tiny" id="Layer_2" xmlns="http://www.w3.org/2000/svg" xmlns:xlink="http://www.w3.org/1999/xlink"
	 x="0px" y="0px" viewBox="0 0 112 112" xml:space="preserve">
<g>
	<g>
		<path fill="#FFFFFF" d="M56,112C25.1,112,0,86.9,0,56S25.1,0,56,0s56,25.1,56,56S86.9,112,56,112z M56,2C26.2,2,2,26.2,2,56
			s24.2,54,54,54s54-24.2,54-54S85.8,2,56,2z"/>
	</g>
	<image width="230" height="230" xlink:href="650F4016.png"  transform="matrix(0.48 0 0 0.48 1 1)">
	</image>
	<g>
		<g>
			<g>
				<path fill="#FFFFFF" d="M0.9,56.7c0,1.3,0.1,2.6,0.2,4C2.1,59.5,2,57.8,0.9,56.7L0.9,56.7z"/>
			</g>
		</g>
		<g>
			<g>
				<path fill="#FFFFFF" d="M20.5,37.2L9.8,26.6c-0.3,0.6-0.7,1.2-1.2,1.6l10.5,10.5c0.2,0.2,0.3,0.4,0.3,0.6s-0.1,0.5-0.3,0.6
					L6.4,52.5c-0.3,0.3-0.9,0.3-1.2,0l-4-4c-0.1,0.9-0.1,1.7-0.2,2.6l2.8,2.8c0.5,0.5,1.3,0.8,2,0.8c0.8,0,1.5-0.3,2-0.8l12.7-12.7
					c0.5-0.5,0.8-1.3,0.8-2S21,37.8,20.5,37.2z"/>
			</g>
			<g>
				<path fill="#FFFFFF" d="M16.1,32.8c-0.4-0.4-1-0.4-1.4,0L1.4,46.1c-0.1,1-0.1,2-0.2,3l14.9-14.9C16.5,33.8,16.5,33.2,16.1,32.8z
					"/>
			</g>
			<g>
				<path fill="#FFFFFF" d="M10.7,47c-0.8,0-1.5-0.3-2-0.8c-1.1-1.1-1.1-2.9,0-4c1.1-1.1,2.9-1.1,4,0c1.1,1.1,1.1,2.9,0,4
					C12.2,46.7,11.5,47,10.7,47z M10.7,43.4c-0.2,0-0.4,0.1-0.6,0.2c-0.3,0.3-0.3,0.8,0,1.1c0.3,0.3,0.8,0.3,1.1,0
					c0.3-0.3,0.3-0.8,0-1.1C11.1,43.4,10.9,43.4,10.7,43.4z"/>
			</g>
		</g>
		<g>
			<g>
				<path fill="#FFFFFF" d="M40,17.7L29.7,7.4c-0.5,0.5-1.1,0.9-1.7,1.1l10.6,10.6c0.2,0.2,0.3,0.4,0.3,0.6s-0.1,0.5-0.3,0.6L26,33
					c-0.3,0.3-0.9,0.3-1.2,0L13.1,21.4c-0.3,0.6-0.7,1.2-1.2,1.7l11.3,11.3c0.5,0.5,1.3,0.8,2,0.8s1.5-0.3,2-0.8L40,21.8
					c0.5-0.5,0.8-1.3,0.8-2C40.9,19,40.6,18.2,40,17.7z"/>
			</g>
			<g>
				<path fill="#FFFFFF" d="M19.6,30.3c-0.3,0-0.5-0.1-0.7-0.3c-0.4-0.4-0.4-1,0-1.4l15.3-15.3c0.4-0.4,1-0.4,1.4,0s0.4,1,0,1.4
					L20.3,30C20.1,30.2,19.9,30.3,19.6,30.3z"/>
			</g>
			<g>
				<path fill="#FFFFFF" d="M30.2,27.4c-0.8,0-1.5-0.3-2-0.8c-1.1-1.1-1.1-2.9,0-4c1.1-1.1,2.9-1.1,4,0c1.1,1.1,1.1,2.9,0,4
					C31.7,27.2,31,27.4,30.2,27.4z M30.2,23.8c-0.2,0-0.4,0.1-0.6,0.2c-0.3,0.3-0.3,0.8,0,1.1c0.3,0.3,0.8,0.3,1.1,0
					c0.3-0.3,0.3-0.8,0-1.1C30.7,23.9,30.5,23.8,30.2,23.8z"/>
			</g>
		</g>
		<g>
			<g>
				<path fill="#FFFFFF" d="M57.7,1.3L45.5,13.5c-0.3,0.3-0.9,0.3-1.2,0l-9-9c-0.5,0.5-1.1,0.8-1.7,1.1l9.3,9.3
					c0.5,0.5,1.3,0.8,2,0.8c0.8,0,1.5-0.3,2-0.8L59.6,2.2C59.8,2,59.9,1.8,60,1.6C59.3,1.4,58.5,1.3,57.7,1.3z"/>
			</g>
			<g>
				<path fill="#FFFFFF" d="M46.8,1.3c-0.2,0-0.4,0-0.6,0l-7.8,7.8c-0.4,0.4-0.4,1,0,1.4c0.2,0.2,0.5,0.3,0.7,0.3s0.5-0.1,0.7-0.3
					L49.3,1C48.5,1.1,47.6,1.1,46.8,1.3z"/>
			</g>
			<g>
				<path fill="#FFFFFF" d="M49.8,7.9c-0.8,0-1.5-0.3-2-0.8c-1.1-1.1-1.1-2.9,0-4c1.1-1.1,2.9-1.1,4,0c1.1,1.1,1.1,2.9,0,4
					C51.2,7.6,50.5,7.9,49.8,7.9z M49.8,4.3c-0.2,0-0.4,0.1-0.6,0.2c-0.3,0.3-0.3,0.8,0,1.1C49.5,6,50,6,50.4,5.7
					c0.3-0.3,0.3-0.8,0-1.1C50.2,4.4,50,4.3,49.8,4.3z"/>
			</g>
		</g>
		<g>
			<g>
				<path fill="#FFFFFF" d="M32.5,91.5c0,0.2-0.1,0.5-0.3,0.6l-9.2,9.2c0.6,0.4,1.1,0.8,1.7,1.1l8.9-8.9c0.5-0.5,0.8-1.3,0.8-2
					s-0.3-1.5-0.8-2l-26-26c-1.1-1.1-3-1.1-4.1,0l-2.1,2.1c0.3,0.8,0.3,1.8,0.2,2.6L5,64.9c0.2-0.2,0.4-0.3,0.6-0.3s0.5,0.1,0.6,0.3
					l26,26C32.4,91.1,32.5,91.3,32.5,91.5z"/>
			</g>
			<g>
				<path fill="#FFFFFF" d="M10.2,66c-0.4-0.4-1-0.4-1.4,0l-5.7,5.7c0.4,0.6,0.6,1.4,0.7,2.1l6.4-6.4C10.6,67,10.6,66.4,10.2,66z"/>
			</g>
			<g>
				<path fill="#FFFFFF" d="M29.3,85.1c-0.4-0.4-1-0.4-1.4,0L17.6,95.3c0.7,0.3,1.2,0.6,1.7,1.1l10-10
					C29.7,86.1,29.7,85.5,29.3,85.1z"/>
			</g>
			<g>
				<path fill="#FFFFFF" d="M23.9,99.2c-0.8,0-1.5-0.3-2-0.8c-1.1-1.1-1.1-2.9,0-4c1.1-1.1,2.9-1.1,4,0c1.1,1.1,1.1,2.9,0,4
					C25.4,98.9,24.7,99.2,23.9,99.2z M23.9,95.6c-0.2,0-0.4,0.1-0.6,0.2c-0.3,0.3-0.3,0.8,0,1.1c0.3,0.3,0.8,0.3,1.1,0
					c0.3-0.3,0.3-0.8,0-1.1C24.3,95.7,24.1,95.6,23.9,95.6z"/>
			</g>
		</g>
		<g>
			<g>
				<path fill="#FFFFFF" d="M38.5,87.5c-0.8,0-1.5-0.3-2-0.8l-26-26c-0.5-0.5-0.8-1.3-0.8-2s0.3-1.5,0.8-2l12.7-12.7
					c1.1-1.1,3-1.1,4.1,0l26,26c1.1,1.1,1.1,2.9,0,4.1L40.6,86.7C40,87.2,39.3,87.5,38.5,87.5z M25.2,45.1c-0.2,0-0.5,0.1-0.6,0.3
					L11.9,58c-0.2,0.2-0.3,0.4-0.3,0.6s0.1,0.5,0.3,0.6l26,26c0.3,0.3,0.9,0.3,1.2,0l12.7-12.7c0.3-0.3,0.3-0.9,0-1.2l-26-26
					C25.6,45.2,25.4,45.1,25.2,45.1z"/>
			</g>
			<g>
				<path fill="#FFFFFF" d="M13.7,63.5c-0.3,0-0.5-0.1-0.7-0.3c-0.4-0.4-0.4-1,0-1.4l15.3-15.3c0.4-0.4,1-0.4,1.4,0s0.4,1,0,1.4
					L14.5,63.2C14.3,63.4,14,63.5,13.7,63.5z"/>
			</g>
			<g>
				<path fill="#FFFFFF" d="M32.8,82.5c-0.3,0-0.5-0.1-0.7-0.3c-0.4-0.4-0.4-1,0-1.4l15.3-15.3c0.4-0.4,1-0.4,1.4,0s0.4,1,0,1.4
					L33.5,82.2C33.3,82.4,33,82.5,32.8,82.5z"/>
			</g>
			<g>
				<path fill="#FFFFFF" d="M17.3,55.8c-0.3,0-0.5-0.1-0.7-0.3c-0.4-0.4-0.4-1,0-1.4l4.3-4.3c0.4-0.4,1-0.4,1.4,0s0.4,1,0,1.4
					L18,55.5C17.8,55.7,17.5,55.8,17.3,55.8z"/>
			</g>
			<g>
				<path fill="#FFFFFF" d="M43.4,79.7c-0.8,0-1.5-0.3-2-0.8c-0.5-0.5-0.8-1.2-0.8-2s0.3-1.5,0.8-2c1.1-1.1,2.9-1.1,4,0
					c0.5,0.5,0.8,1.2,0.8,2s-0.3,1.5-0.8,2C44.9,79.4,44.2,79.7,43.4,79.7z M43.4,76.1c-0.2,0-0.4,0.1-0.6,0.2s-0.2,0.4-0.2,0.6
					s0.1,0.4,0.2,0.6c0.3,0.3,0.8,0.3,1.1,0c0.2-0.2,0.2-0.4,0.2-0.6s-0.1-0.4-0.2-0.6C43.9,76.1,43.6,76.1,43.4,76.1z"/>
			</g>
		</g>
		<g>
			<g>
				<path fill-rule="evenodd" fill="#00C2F6" d="M72,53.8L59.4,66.4c-0.7,0.7-1.9,0.7-2.6,0l-26-26c-0.7-0.7-0.7-1.9,0-2.6
					l12.7-12.7c0.7-0.7,1.9-0.7,2.6,0l26,26C72.8,51.9,72.8,53,72,53.8z"/>
				<path fill="#FFFFFF" d="M58.1,68c-0.8,0-1.5-0.3-2-0.8l-26-26c-1.1-1.1-1.1-2.9,0-4.1l12.7-12.7c1.1-1.1,3-1.1,4.1,0l26,26
					c0.5,0.5,0.8,1.3,0.8,2s-0.3,1.5-0.8,2L60.1,67.1C59.5,67.7,58.8,68,58.1,68z M44.7,25.6c-0.2,0-0.5,0.1-0.6,0.3L31.4,38.5
					c-0.3,0.3-0.3,0.9,0,1.2l26,26c0.3,0.3,0.9,0.3,1.2,0l12.7-12.7c0.2-0.2,0.3-0.4,0.3-0.6s-0.1-0.5-0.3-0.6l-26-26
					C45.2,25.7,44.9,25.6,44.7,25.6z"/>
			</g>
			<g>
				<path fill="#FFFFFF" d="M33.3,44c-0.3,0-0.5-0.1-0.7-0.3c-0.4-0.4-0.4-1,0-1.4L47.9,27c0.4-0.4,1-0.4,1.4,0s0.4,1,0,1.4L34,43.7
					C33.8,43.9,33.5,44,33.3,44z"/>
			</g>
			<g>
				<path fill="#FFFFFF" d="M52.3,63c-0.3,0-0.5-0.1-0.7-0.3c-0.4-0.4-0.4-1,0-1.4L66.9,46c0.4-0.4,1-0.4,1.4,0s0.4,1,0,1.4L53,62.7
					C52.8,62.9,52.6,63,52.3,63z"/>
			</g>
			<g>
				<path fill="#FFFFFF" d="M36.8,36.3c-0.3,0-0.5-0.1-0.7-0.3c-0.4-0.4-0.4-1,0-1.4l4.3-4.3c0.4-0.4,1-0.4,1.4,0s0.4,1,0,1.4
					L37.5,36C37.3,36.2,37.1,36.3,36.8,36.3z"/>
			</g>
			<g>
				<path fill="#FFFFFF" d="M63,60.2c-0.8,0-1.5-0.3-2-0.8c-1.1-1.1-1.1-2.9,0-4c1.1-1.1,2.9-1.1,4,0c1.1,1.1,1.1,2.9,0,4
					C64.4,59.9,63.7,60.2,63,60.2z M63,56.5c-0.2,0-0.4,0.1-0.6,0.2c-0.3,0.3-0.3,0.8,0,1.1c0.3,0.3,0.8,0.3,1.1,0
					c0.3-0.3,0.3-0.8,0-1.1C63.4,56.6,63.2,56.5,63,56.5z"/>
			</g>
		</g>
		<g>
			<g>
				<path fill="#FFFFFF" d="M77.6,48.4c-0.8,0-1.5-0.3-2-0.8l-26-26c-0.5-0.5-0.8-1.3-0.8-2s0.3-1.5,0.8-2L62.2,4.9
					c1.1-1.1,3-1.1,4.1,0l26,26c0.5,0.5,0.8,1.3,0.8,2c0,0.8-0.3,1.5-0.8,2L79.6,47.6C79.1,48.1,78.4,48.4,77.6,48.4z M64.2,6
					c-0.2,0-0.5,0.1-0.6,0.3L51,19c-0.2,0.2-0.3,0.4-0.3,0.6s0.1,0.5,0.3,0.6l26,26c0.3,0.3,0.9,0.3,1.2,0l12.7-12.7
					c0.2-0.2,0.3-0.4,0.3-0.6s-0.1-0.5-0.3-0.6l-26-26C64.7,6.1,64.5,6,64.2,6z"/>
			</g>
			<g>
				<path fill="#FFFFFF" d="M52.8,24.4c-0.3,0-0.5-0.1-0.7-0.3c-0.4-0.4-0.4-1,0-1.4L67.4,7.4c0.4-0.4,1-0.4,1.4,0s0.4,1,0,1.4
					L53.5,24.1C53.3,24.3,53.1,24.4,52.8,24.4z"/>
			</g>
			<g>
				<path fill="#FFFFFF" d="M71.8,43.5c-0.3,0-0.5-0.1-0.7-0.3c-0.4-0.4-0.4-1,0-1.4l15.3-15.3c0.4-0.4,1-0.4,1.4,0s0.4,1,0,1.4
					L72.6,43.2C72.4,43.4,72.1,43.5,71.8,43.5z"/>
			</g>
			<g>
				<path fill="#FFFFFF" d="M56.3,16.7c-0.3,0-0.5-0.1-0.7-0.3c-0.4-0.4-0.4-1,0-1.4l4.3-4.3c0.4-0.4,1-0.4,1.4,0s0.4,1,0,1.4
					l-4.3,4.3C56.9,16.6,56.6,16.7,56.3,16.7z"/>
			</g>
			<g>
				<path fill="#FFFFFF" d="M82.5,40.6c-0.8,0-1.5-0.3-2-0.8c-0.5-0.5-0.8-1.2-0.8-2s0.3-1.5,0.8-2c1.1-1.1,2.9-1.1,4,0
					c1.1,1.1,1.1,2.9,0,4C83.9,40.3,83.2,40.6,82.5,40.6z M82.5,37c-0.2,0-0.4,0.1-0.6,0.2s-0.2,0.4-0.2,0.6s0.1,0.4,0.2,0.6
					c0.3,0.3,0.8,0.3,1.1,0c0.3-0.3,0.3-0.8,0-1.1C82.9,37.1,82.7,37,82.5,37z"/>
			</g>
		</g>
		<g>
			<g>
				<path fill="#FFFFFF" d="M101.1,23.3l-3.4,3.4c-0.3,0.3-0.9,0.3-1.2,0L74.9,5c-1.3-0.4-2.6-0.7-3.9-1l24.1,24.1
					c0.5,0.5,1.3,0.8,2,0.8s1.5-0.3,2-0.8l3.2-3.2C101.8,24.4,101.4,23.9,101.1,23.3z"/>
			</g>
			<g>
				<path fill="#FFFFFF" d="M95.6,17.4l-4.9,4.9c-0.4,0.4-0.4,1,0,1.4c0.2,0.2,0.5,0.3,0.7,0.3s0.5-0.1,0.7-0.3l5.1-5.1
					C96.5,18.3,96,17.9,95.6,17.4z"/>
			</g>
		</g>
		<g>
			<g>
				<path fill="#FFFFFF" d="M53.3,111.5c0.8,0,1.6,0.2,2.2,0.5c0.2-0.1,0.4-0.1,0.5-0.2L40.4,96.2c-1.1-1.1-3-1.1-4.1,0l-8.2,8.2
					c0.6,0.3,1.2,0.7,1.9,1l7.8-7.8c0.2-0.2,0.4-0.3,0.6-0.3s0.5,0.1,0.6,0.3l13.9,13.9C53,111.5,53.1,111.5,53.3,111.5z"/>
			</g>
			<g>
				<path fill="#FFFFFF" d="M42.9,98.7c-0.4-0.4-1-0.4-1.4,0l-8.3,8.3c0.6,0.3,1.2,0.6,1.8,0.9c0,0,0.1,0,0.1,0l7.8-7.8
					C43.3,99.8,43.3,99.1,42.9,98.7z"/>
			</g>
			<g>
				<path fill="#FFFFFF" d="M32.4,106.6l3.1-3.1c0.4-0.4,0.4-1,0-1.4s-1-0.4-1.4,0l-3.6,3.6C31.1,105.9,31.7,106.2,32.4,106.6z"/>
			</g>
		</g>
		<g>
			<g>
				<path fill="#FFFFFF" d="M63.4,110.8L44.6,92c-0.2-0.2-0.3-0.4-0.3-0.6s0.1-0.5,0.3-0.6l12.7-12.7c0.2-0.2,0.4-0.3,0.6-0.3
					s0.5,0.1,0.6,0.3L84,103.6c0.6-0.4,1.2-0.7,1.8-1L59.9,76.7c-1.1-1.1-3-1.1-4.1,0L43.2,89.3c-0.5,0.5-0.8,1.3-0.8,2
					s0.3,1.5,0.8,2l17.6,17.6C61.7,110.9,62.5,110.8,63.4,110.8z"/>
			</g>
			<g>
				<path fill="#FFFFFF" d="M46.5,96.2c-0.3,0-0.5-0.1-0.7-0.3c-0.4-0.4-0.4-1,0-1.4l15.3-15.3c0.4-0.4,1-0.4,1.4,0s0.4,1,0,1.4
					L47.2,95.9C47,96.1,46.7,96.2,46.5,96.2z"/>
			</g>
			<g>
				<path fill="#FFFFFF" d="M71.2,109.9l10.3-10.3c0.4-0.4,0.4-1,0-1.4s-1-0.4-1.4,0l-12.2,12.2C69,110.4,70.1,110.2,71.2,109.9z"/>
			</g>
			<g>
				<path fill="#FFFFFF" d="M50,88.5c-0.3,0-0.5-0.1-0.7-0.3c-0.4-0.4-0.4-1,0-1.4l4.3-4.3c0.4-0.4,1-0.4,1.4,0s0.4,1,0,1.4
					l-4.3,4.3C50.5,88.4,50.3,88.5,50,88.5z"/>
			</g>
			<g>
				<path fill="#FFFFFF" d="M73.5,109.3c1.5-0.6,2.9-1.2,4.3-2c-1.1-0.7-2.7-0.6-3.6,0.3c-0.5,0.5-0.7,1.1-0.8,1.7
					C73.4,109.3,73.4,109.3,73.5,109.3z"/>
			</g>
		</g>
		<g>
			<g>
				<path fill="#FFFFFF" d="M89.7,100.5c4.1-1.6,6.6-5.7,8.9-9.2c0.1-0.1,0.2-0.3,0.3-0.4l-7.5,7.5c-0.3,0.3-0.9,0.3-1.2,0l-26-26
					c-0.2-0.2-0.3-0.4-0.3-0.6s0.1-0.5,0.3-0.6l12.7-12.7c0.2-0.2,0.4-0.3,0.6-0.3s0.5,0.1,0.6,0.3l25.7,25.7
					c0.3-0.3,0.5-0.6,0.8-0.9c-0.1-0.4-0.1-0.8-0.1-1.3L79.5,57.1c-1.1-1.1-3-1.1-4.1,0L62.7,69.8c-0.5,0.5-0.8,1.3-0.8,2
					s0.3,1.5,0.8,2l26,26C89,100.1,89.4,100.3,89.7,100.5z"/>
			</g>
			<g>
				<path fill="#FFFFFF" d="M66,76.7c-0.3,0-0.5-0.1-0.7-0.3c-0.4-0.4-0.4-1,0-1.4l15.3-15.3c0.4-0.4,1-0.4,1.4,0s0.4,1,0,1.4
					L66.7,76.4C66.5,76.6,66.2,76.7,66,76.7z"/>
			</g>
			<g>
				<path fill="#FFFFFF" d="M85,95.7c-0.3,0-0.5-0.1-0.7-0.3c-0.4-0.4-0.4-1,0-1.4l15.3-15.3c0.4-0.4,1-0.4,1.4,0s0.4,1,0,1.4
					L85.7,95.4C85.5,95.6,85.3,95.7,85,95.7z"/>
			</g>
			<g>
				<path fill="#FFFFFF" d="M69.5,69c-0.3,0-0.5-0.1-0.7-0.3c-0.4-0.4-0.4-1,0-1.4l4.3-4.3c0.4-0.4,1-0.4,1.4,0s0.4,1,0,1.4
					l-4.3,4.3C70,68.9,69.8,69,69.5,69z"/>
			</g>
			<g>
				<path fill="#FFFFFF" d="M95.7,92.9c-0.8,0-1.5-0.3-2-0.8c-1.1-1.1-1.1-2.9,0-4c1.1-1.1,2.9-1.1,4,0c1.1,1.1,1.1,2.9,0,4
					C97.1,92.6,96.4,92.9,95.7,92.9z M95.7,89.2c-0.2,0-0.4,0.1-0.6,0.2c-0.3,0.3-0.3,0.8,0,1.1c0.3,0.3,0.8,0.3,1.1,0
					c0.3-0.3,0.3-0.8,0-1.1C96.1,89.3,95.9,89.2,95.7,89.2z"/>
			</g>
		</g>
		<g>
			<g>
				<path fill="#FFFFFF" d="M96.3,39c0.2-0.2,0.4-0.3,0.6-0.3c0.2,0,0.5,0.1,0.6,0.3l13.7,13.7c0-0.4,0-0.8,0-1.2
					c-0.1-0.7-0.3-1.3-0.4-2L99,37.6c-1.1-1.1-3-1.1-4.1,0L82.3,50.3c-0.5,0.5-0.8,1.3-0.8,2c0,0.8,0.3,1.5,0.8,2l23.4,23.4
					c0.2-0.7,0.5-1.4,0.7-2.1L83.7,52.9c-0.2-0.2-0.3-0.4-0.3-0.6s0.1-0.5,0.3-0.6L96.3,39z"/>
			</g>
			<g>
				<path fill="#FFFFFF" d="M85.5,57.1c-0.3,0-0.5-0.1-0.7-0.3c-0.4-0.4-0.4-1,0-1.4l15.3-15.3c0.4-0.4,1-0.4,1.4,0s0.4,1,0,1.4
					L86.2,56.9C86,57,85.8,57.1,85.5,57.1z"/>
			</g>
			<g>
				<path fill="#FFFFFF" d="M105.3,75.9l1.6-1.6c0.4-1.4,0.9-2.7,1.3-4.1l-4.3,4.3c-0.4,0.4-0.4,1,0,1.4c0.2,0.2,0.5,0.3,0.7,0.3
					S105.1,76.1,105.3,75.9z"/>
			</g>
			<g>
				<path fill="#FFFFFF" d="M89.1,49.5c-0.3,0-0.5-0.1-0.7-0.3c-0.4-0.4-0.4-1,0-1.4l4.3-4.3c0.4-0.4,1-0.4,1.4,0s0.4,1,0,1.4
					l-4.3,4.3C89.6,49.4,89.3,49.5,89.1,49.5z"/>
			</g>
		</g>
		<g>
			<g>
				<path fill="#FFFFFF" d="M108.5,38.7l-5.3-5.3c-0.2-0.2-0.3-0.4-0.3-0.6s0.1-0.5,0.3-0.6l2.2-2.2c-0.1-0.1-0.1-0.3-0.2-0.4
					c-0.3-0.5-0.5-1-0.7-1.5l-2.7,2.7c-0.5,0.5-0.8,1.3-0.8,2s0.3,1.5,0.8,2l7.5,7.5C109,41.1,108.8,39.9,108.5,38.7z"/>
			</g>
			<g>
				<path fill="#FFFFFF" d="M107,33.3l-2.7,2.7c-0.4,0.4-0.4,1,0,1.4c0.2,0.2,0.5,0.3,0.7,0.3s0.5-0.1,0.7-0.3l1.9-1.9
					C107.5,34.7,107.3,34,107,33.3z"/>
			</g>
		</g>
	</g>
</g>
</svg>
