<?xml version="1.0" encoding="utf-8"?>
<!-- Generator: Adobe Illustrator 18.1.1, SVG Export Plug-In . SVG Version: 6.00 Build 0)  -->
<svg version="1.2" baseProfile="tiny" xmlns="http://www.w3.org/2000/svg" xmlns:xlink="http://www.w3.org/1999/xlink" x="0px"
	 y="0px" viewBox="0 0 112 112" xml:space="preserve">
<g id="Layer_2">
	<g>
		<image width="230" height="230" xlink:href="C6E5FC53.png"  transform="matrix(0.48 0 0 0.48 1.0001 1.0004)">
		</image>
		<g>
			<g>
				<g>
					<g>
						<path fill="#FFFFFF" d="M16,47.4L4.5,35.9c-0.1,0.8-0.3,1.5-0.7,2.1l10.8,10.8c0.3,0.3,0.3,0.9,0,1.2L1.3,63.3
							c0,0.8,0,1.7,0.1,2.5c0,0.1,0.1,0.1,0.1,0.2L16,51.5C17.1,50.3,17.1,48.5,16,47.4z"/>
					</g>
					<g>
						
							<path fill-rule="evenodd" fill="none" stroke="#FFFFFF" stroke-width="2" stroke-linecap="round" stroke-linejoin="round" stroke-miterlimit="10" d="
							M10.9,43.7"/>
					</g>
				</g>
				<g>
					<g>
						<path fill="#FFFFFF" d="M6.1,43.6L2.5,40c-0.1,0.9-0.1,1.8-0.1,2.7L4.6,45c0.2,0.2,0.2,0.5,0,0.6l-4.1,4.1
							c0,0.9,0.1,1.8,0.1,2.7L6.1,47C7,46.1,7,44.5,6.1,43.6z"/>
					</g>
				</g>
			</g>
			<g>
				<g>
					<g>
						<path fill="#FFFFFF" d="M44,19.4L31.7,7c-0.2,0.1-0.3,0.2-0.5,0.4C30.9,7.7,30.4,8,30,8.2l12.6,12.6c0.2,0.2,0.3,0.4,0.3,0.6
							s-0.1,0.5-0.3,0.6L21.5,43.1c-0.3,0.3-0.9,0.3-1.2,0L7,29.9c-0.3,0.6-0.6,1.3-0.9,1.9l12.8,12.8c0.5,0.5,1.3,0.8,2,0.8
							c0.8,0,1.5-0.3,2-0.8L44,23.4c0.5-0.5,0.8-1.3,0.8-2C44.9,20.6,44.6,19.9,44,19.4z"/>
					</g>
				</g>
				<g>
					<g>
						<path fill="#FFFFFF" d="M27.4,8.8c-0.2,0-0.3,0-0.5,0c-0.4,0.2-0.8,0.4-1.2,0.5c-0.1,0.1-0.3,0.2-0.4,0.3l7.3,7.3
							c0.2,0.2,0.2,0.5,0,0.6L17.1,33.2c-0.1,0.1-0.2,0.1-0.3,0.1c-0.1,0-0.2,0-0.3-0.1L9,25.8c-0.3,0.6-0.6,1.3-0.9,1.9l6.9,6.9
							c0.5,0.5,1.1,0.7,1.7,0.7c0.7,0,1.3-0.3,1.7-0.7L34.1,19c1-1,1-2.5,0-3.5L27.4,8.8z"/>
					</g>
				</g>
				<g>
					<path fill="#FFFFFF" d="M13.3,20.6c-0.2,0.2-0.3,0.3-0.5,0.5c-0.4,0.4-0.7,0.7-1.1,0.9l1.2,3c0.2,0.4,0.5,0.6,0.9,0.6
						c0.1,0,0.3,0,0.4-0.1c0.5-0.2,0.8-0.8,0.6-1.3L13.3,20.6z"/>
					<path fill="#FFFFFF" d="M19.1,15c-0.6,0.5-1.1,1-1.7,1.5l0.3,1.3l-1.3-0.4c-0.6,0.5-1.1,1.1-1.7,1.6l4.1,1.1
						c0.4,0.1,0.7,0,1-0.3c0.3-0.3,0.4-0.6,0.3-1L19.1,15z"/>
					<path fill="#FFFFFF" d="M24,13.8l-2.7-0.7c-0.6,0.5-1.2,1.1-1.8,1.6l3.9,1.1c0.5,0.1,1.1-0.2,1.2-0.7
						C24.8,14.5,24.5,13.9,24,13.8z"/>
				</g>
			</g>
			<g>
				<g>
					<g>
						<path fill="#FFFFFF" d="M63.5,1.2L49.5,15.1c-0.3,0.3-0.9,0.3-1.2,0L36.8,3.6C36.2,4,35.6,4.3,35,4.7l11.8,11.8
							c0.5,0.5,1.3,0.8,2,0.8s1.5-0.3,2-0.8L65.6,1.8C64.9,1.6,64.2,1.4,63.5,1.2z"/>
					</g>
				</g>
				<g>
					<g>
						<path fill="#FFFFFF" d="M49,1.3l-3.9,3.9c-0.1,0.1-0.2,0.1-0.3,0.1c-0.1,0-0.2,0-0.3-0.1l-2.7-2.7C41,2.6,40.2,2.8,39.5,3
							L43,6.6c0.5,0.5,1.1,0.7,1.7,0.7S46,7,46.5,6.6l5.6-5.6C51.1,1,50,1.2,49,1.3z"/>
					</g>
				</g>
			</g>
			<g>
				<g>
					<g>
						<path fill="#FFFFFF" d="M48.8,80.2l-26-26c-1.1-1.1-3-1.1-4.1,0L2.3,70.7c0.4,0.5,0.7,1.2,0.9,1.9l17-17
							c0.2-0.2,0.4-0.3,0.6-0.3s0.5,0.1,0.6,0.3l26,26c0.3,0.3,0.3,0.9,0,1.2l-19.9,19.9c0.6,0.3,1.3,0.7,1.9,1l19.4-19.4
							C50,83.2,50,81.3,48.8,80.2z"/>
					</g>
					<g>
						
							<path fill-rule="evenodd" fill="none" stroke="#FFFFFF" stroke-width="2" stroke-linecap="round" stroke-linejoin="round" stroke-miterlimit="10" d="
							M24.7,57.5"/>
					</g>
					<g>
						
							<path fill-rule="evenodd" fill="none" stroke="#FFFFFF" stroke-width="2" stroke-linecap="round" stroke-linejoin="round" stroke-miterlimit="10" d="
							M43.7,76.5"/>
					</g>
				</g>
				<g>
					<g>
						<path fill="#FFFFFF" d="M38.9,76.4L23.2,60.7c-0.9-0.9-2.5-0.9-3.5,0L4.1,76.3c0,0,0,0-0.1,0.1c1.1,2.4,3.1,5.1,4.2,6.8
							c0.4,0.6,0.7,1.2,1.1,1.8l10.5,10.5c0.5,0.5,1.1,0.7,1.7,0.7s1.3-0.3,1.7-0.7l15.6-15.6C39.9,78.9,39.9,77.3,38.9,76.4z
							 M37.5,78.4L21.9,94.1c-0.1,0.1-0.2,0.1-0.3,0.1c-0.1,0-0.2,0-0.3-0.1L5.5,78.3c-0.1-0.1-0.1-0.2-0.1-0.3s0-0.2,0.1-0.3
							l15.6-15.6c0.1-0.1,0.2-0.1,0.3-0.1c0.1,0,0.2,0,0.3,0.1l15.7,15.7C37.7,78,37.7,78.3,37.5,78.4z"/>
					</g>
					<g>
						
							<path fill-rule="evenodd" fill="none" stroke="#FFFFFF" stroke-width="2" stroke-linecap="round" stroke-linejoin="round" stroke-miterlimit="10" d="
							M24.6,63.5"/>
					</g>
				</g>
				<g>
					<path fill="#FFFFFF" d="M18.7,86.5c-0.4,0-0.8-0.2-0.9-0.6l-3.1-7.7c-0.1-0.4-0.1-0.8,0.2-1c0.3-0.3,0.6-0.4,1-0.3l6.7,1.9
						l-1.2-4.4c-0.1-0.3,0-0.7,0.3-1c0.3-0.3,0.6-0.4,1-0.3l6.2,1.6c0.5,0.1,0.9,0.7,0.7,1.2c-0.1,0.5-0.7,0.9-1.2,0.7l-4.5-1.2
						l1.2,4.4c0.1,0.3,0,0.7-0.3,1c-0.3,0.3-0.6,0.4-1,0.3l-6.5-1.8l2.3,5.8c0.2,0.5,0,1.1-0.6,1.3C18.9,86.4,18.8,86.5,18.7,86.5z"
						/>
				</g>
			</g>
			<g>
				<g>
					<g>
						<path fill-rule="evenodd" fill="#00C2F6" d="M76.2,55.5L55,76.7c-0.7,0.7-1.9,0.7-2.6,0l-26-26c-0.7-0.7-0.7-1.9,0-2.6
							l21.1-21.1c0.7-0.7,1.9-0.7,2.6,0l26,26C76.9,53.6,76.9,54.8,76.2,55.5z"/>
						<path fill="#FFFFFF" d="M53.7,78.2c-0.8,0-1.5-0.3-2-0.8l-26-26c-0.5-0.5-0.8-1.3-0.8-2c0-0.8,0.3-1.5,0.8-2l21.1-21.1
							c1.1-1.1,3-1.1,4.1,0l26,26c0.5,0.5,0.8,1.3,0.8,2c0,0.8-0.3,1.5-0.8,2L55.8,77.4C55.2,77.9,54.5,78.2,53.7,78.2z M48.9,27.3
							c-0.2,0-0.5,0.1-0.6,0.3L27.1,48.7c-0.2,0.2-0.3,0.4-0.3,0.6s0.1,0.5,0.3,0.6l26,26c0.3,0.3,0.9,0.3,1.2,0l21.1-21.1
							c0.2-0.2,0.3-0.4,0.3-0.6s-0.1-0.5-0.3-0.6l-26-26C49.3,27.4,49.1,27.3,48.9,27.3z"/>
					</g>
					<g>
						
							<path fill-rule="evenodd" fill="#00C2F6" stroke="#FFFFFF" stroke-width="2" stroke-linecap="round" stroke-linejoin="round" stroke-miterlimit="10" d="
							M28.9,53.2"/>
					</g>
					<g>
						
							<path fill-rule="evenodd" fill="#00C2F6" stroke="#FFFFFF" stroke-width="2" stroke-linecap="round" stroke-linejoin="round" stroke-miterlimit="10" d="
							M71.8,48.5"/>
					</g>
					<g>
						
							<path fill-rule="evenodd" fill="#00C2F6" stroke="#FFFFFF" stroke-width="2" stroke-linecap="round" stroke-linejoin="round" stroke-miterlimit="10" d="
							M48,72.3"/>
					</g>
				</g>
				<g>
					<g>
						<path fill-rule="evenodd" fill="#00C2F6" d="M66.2,51.1L50.6,66.7c-0.6,0.6-1.5,0.6-2.1,0L32.8,51c-0.6-0.6-0.6-1.5,0-2.1
							l15.6-15.6c0.6-0.6,1.5-0.6,2.1,0l15.7,15.7C66.8,49.6,66.8,50.5,66.2,51.1z"/>
						<path fill="#FFFFFF" d="M49.6,68.2c-0.7,0-1.3-0.3-1.7-0.7L32.1,51.7c-1-1-1-2.5,0-3.5l15.6-15.6c0.9-0.9,2.5-0.9,3.5,0
							l15.7,15.7c1,1,1,2.5,0,3.5L51.3,67.4C50.8,67.9,50.2,68.2,49.6,68.2z M49.5,33.9c-0.1,0-0.2,0-0.3,0.1L33.5,49.7
							c-0.2,0.2-0.2,0.5,0,0.6L49.3,66c0.1,0.1,0.2,0.1,0.3,0.1c0.1,0,0.2,0,0.3-0.1l15.6-15.6c0.2-0.2,0.2-0.5,0-0.6L49.8,34
							C49.7,33.9,49.6,33.9,49.5,33.9z"/>
					</g>
					<g>
						
							<path fill-rule="evenodd" fill="#00C2F6" stroke="#FFFFFF" stroke-width="2" stroke-linecap="round" stroke-linejoin="round" stroke-miterlimit="10" d="
							M34.9,53.1"/>
					</g>
					<g>
						
							<path fill-rule="evenodd" fill="#00C2F6" stroke="#FFFFFF" stroke-width="2" stroke-linecap="round" stroke-linejoin="round" stroke-miterlimit="10" d="
							M62.6,45.4"/>
					</g>
					<g>
						
							<path fill-rule="evenodd" fill="#00C2F6" stroke="#FFFFFF" stroke-width="2" stroke-linecap="round" stroke-linejoin="round" stroke-miterlimit="10" d="
							M44.9,63.1"/>
					</g>
				</g>
				<g>
					<polyline fill-rule="evenodd" fill="#00C2F6" points="46.7,57.4 43.6,49.7 52.1,52.1 50.4,46 56.6,47.6 					"/>
					<path fill="#FFFFFF" d="M46.7,58.4c-0.4,0-0.8-0.2-0.9-0.6l-3.1-7.7c-0.1-0.4-0.1-0.8,0.2-1c0.3-0.3,0.6-0.4,1-0.3l6.7,1.9
						l-1.2-4.4c-0.1-0.3,0-0.7,0.3-1c0.3-0.3,0.6-0.4,1-0.3l6.2,1.6c0.5,0.1,0.9,0.7,0.7,1.2c-0.1,0.5-0.7,0.9-1.2,0.7l-4.5-1.2
						l1.2,4.4c0.1,0.3,0,0.7-0.3,1c-0.3,0.3-0.6,0.4-1,0.3l-6.5-1.8l2.3,5.8c0.2,0.5,0,1.1-0.6,1.3C47,58.4,46.9,58.4,46.7,58.4z"/>
				</g>
			</g>
			<g>
				<g>
					<g>
						<path fill="#FFFFFF" d="M103.8,27.7c-0.2-0.2-0.3-0.5-0.5-0.8L82.4,47.9c-0.3,0.3-0.9,0.3-1.2,0l-26-26
							c-0.3-0.3-0.3-0.9,0-1.2L72.3,3.5C71.5,3.4,70.8,3.2,70,3L53.7,19.3c-0.5,0.5-0.8,1.3-0.8,2c0,0.8,0.3,1.5,0.8,2l26,26
							c0.5,0.5,1.3,0.8,2,0.8c0.8,0,1.5-0.3,2-0.8l20.7-20.7C104.3,28.4,104.1,28,103.8,27.7z"/>
						<path fill="#FFFFFF" d="M96,17.2c-2.2-2-4.3-3.8-6.2-6c-0.3-0.1-0.6-0.2-0.9-0.4l11.3,11.3C98.9,20.4,97.6,18.7,96,17.2z"/>
					</g>
					<g>
						
							<path fill-rule="evenodd" fill="none" stroke="#FFFFFF" stroke-width="2" stroke-linecap="round" stroke-linejoin="round" stroke-miterlimit="10" d="
							M76,44.2"/>
					</g>
				</g>
				<g>
					<g>
						<path fill="#FFFFFF" d="M95,20.3l-14-14c-1.3,0-2.6-0.6-3.6-1.4c-0.2-0.2-0.3-0.4-0.5-0.5c-0.2,0-0.5,0-0.7-0.1
							c-0.1,0.1-0.3,0.2-0.4,0.3L60.2,20.2c-0.5,0.5-0.7,1.1-0.7,1.7s0.3,1.3,0.7,1.7l15.7,15.7c0.5,0.5,1.1,0.7,1.7,0.7
							s1.3-0.3,1.7-0.7L95,23.8C95.9,22.8,95.9,21.3,95,20.3z M93.6,22.4L77.9,38c-0.1,0.1-0.2,0.1-0.3,0.1s-0.2,0-0.3-0.1
							L61.6,22.3c-0.1-0.1-0.1-0.2-0.1-0.3s0-0.2,0.1-0.3L77.2,6c0.1-0.1,0.2-0.1,0.3-0.1s0.2,0,0.3,0.1l15.7,15.7
							C93.7,21.9,93.7,22.2,93.6,22.4z"/>
					</g>
				</g>
				<g>
					<path fill="#FFFFFF" d="M74.8,30.4c-0.4,0-0.8-0.2-0.9-0.6l-3.1-7.7c-0.1-0.4-0.1-0.8,0.2-1c0.3-0.3,0.6-0.4,1-0.3l6.7,1.9
						l-1.2-4.4c-0.1-0.3,0-0.7,0.3-1c0.3-0.3,0.6-0.4,1-0.3l6.2,1.6c0.5,0.1,0.9,0.7,0.7,1.2c-0.1,0.5-0.7,0.9-1.2,0.7l-4.5-1.2
						l1.2,4.4c0.1,0.3,0,0.7-0.3,1c-0.3,0.3-0.6,0.4-1,0.3l-6.5-1.8l2.3,5.8c0.2,0.5,0,1.1-0.6,1.3C75,30.4,74.9,30.4,74.8,30.4z"/>
				</g>
			</g>
			<g>
				<g>
					<g>
						<path fill="#FFFFFF" d="M55.8,87.2c-1.1-1.1-3-1.1-4.1,0l-18.2,18.2c0.6,0.4,1.1,0.9,1.4,1.4l18.2-18.2
							c0.2-0.2,0.4-0.3,0.6-0.3s0.5,0.1,0.6,0.3L74,108.2c0.6-0.3,1.3-0.6,2-0.9L55.8,87.2z"/>
					</g>
					<g>
						
							<path fill-rule="evenodd" fill="none" stroke="#FFFFFF" stroke-width="2" stroke-linecap="round" stroke-linejoin="round" stroke-miterlimit="10" d="
							M57.6,90.5"/>
					</g>
				</g>
				<g>
					<g>
						<path fill="#FFFFFF" d="M39.8,109.3l14.2-14.2c0.1-0.1,0.2-0.1,0.3-0.1s0.2,0,0.3,0.1l15.2,15.2c0.6-0.3,1.2-0.6,1.9-1
							L56.1,93.7c-0.9-0.9-2.5-0.9-3.5,0l-15,15C38.4,108.9,39.1,109.1,39.8,109.3z"/>
					</g>
					<g>
						
							<path fill-rule="evenodd" fill="none" stroke="#FFFFFF" stroke-width="2" stroke-linecap="round" stroke-linejoin="round" stroke-miterlimit="10" d="
							M57.5,96.5"/>
					</g>
				</g>
				<g>
					<path fill="#FFFFFF" d="M55.2,110.5c0.7,0,1.4,0,2.1,0.1l-0.6-2.2l4.5,1.2c0.5,0.1,1.1-0.2,1.2-0.7c0.1-0.5-0.2-1.1-0.7-1.2
						l-6.2-1.6c-0.3-0.1-0.7,0-1,0.3c-0.3,0.3-0.3,0.6-0.3,1L55.2,110.5z"/>
					<path fill="#FFFFFF" d="M48.5,110.3c0.8,0,1.6,0,2.4,0.1l-2.1-0.6c-0.4-0.1-0.8,0-1,0.3c0,0.1-0.1,0.1-0.1,0.2
						C47.9,110.3,48.2,110.3,48.5,110.3z"/>
				</g>
			</g>
			<g>
				<g>
					<g>
						<path fill="#FFFFFF" d="M83.8,59.2c-1.1-1.1-3-1.1-4.1,0L58.6,80.3c-0.5,0.5-0.8,1.3-0.8,2c0,0.8,0.3,1.5,0.8,2l21,21
							c0.6-0.4,1.3-0.7,2-0.8L60.1,83c-0.2-0.2-0.3-0.4-0.3-0.6c0-0.2,0.1-0.5,0.3-0.6l21.1-21.1c0.2-0.2,0.4-0.3,0.6-0.3
							s0.5,0.1,0.6,0.3l22,22c0.2-0.8,0.5-1.4,0.9-1.9L83.8,59.2z"/>
					</g>
					<g>
						
							<path fill-rule="evenodd" fill="none" stroke="#FFFFFF" stroke-width="2" stroke-linecap="round" stroke-linejoin="round" stroke-miterlimit="10" d="
							M85.7,62.4"/>
					</g>
					<g>
						
							<path fill-rule="evenodd" fill="none" stroke="#FFFFFF" stroke-width="2" stroke-linecap="round" stroke-linejoin="round" stroke-miterlimit="10" d="
							M61.9,86.2"/>
					</g>
				</g>
				<g>
					<g>
						<path fill="#FFFFFF" d="M82.5,101.1c-0.7,0-1.3-0.3-1.7-0.7L65.1,84.7c-0.5-0.5-0.7-1.1-0.7-1.7s0.3-1.3,0.7-1.7l15.6-15.6
							c0.9-0.9,2.5-0.9,3.5,0l15.7,15.7c1,1,1,2.5,0,3.5l-15.6,15.6C83.8,100.9,83.2,101.1,82.5,101.1z M82.4,66.9
							c-0.1,0-0.2,0-0.3,0.1L66.5,82.7c-0.1,0.1-0.1,0.2-0.1,0.3s0,0.2,0.1,0.3L82.2,99c0.1,0.1,0.2,0.1,0.3,0.1s0.2,0,0.3-0.1
							l15.6-15.6c0.2-0.2,0.2-0.5,0-0.6L82.8,67C82.6,66.9,82.5,66.9,82.4,66.9z"/>
					</g>
					<g>
						
							<path fill-rule="evenodd" fill="none" stroke="#FFFFFF" stroke-width="2" stroke-linecap="round" stroke-linejoin="round" stroke-miterlimit="10" d="
							M85.6,68.4"/>
					</g>
					<g>
						
							<path fill-rule="evenodd" fill="none" stroke="#FFFFFF" stroke-width="2" stroke-linecap="round" stroke-linejoin="round" stroke-miterlimit="10" d="
							M67.9,86.1"/>
					</g>
					<g>
						
							<path fill-rule="evenodd" fill="none" stroke="#FFFFFF" stroke-width="2" stroke-linecap="round" stroke-linejoin="round" stroke-miterlimit="10" d="
							M95.6,78.4"/>
					</g>
				</g>
				<g>
					<path fill="#FFFFFF" d="M79.7,91.4c-0.4,0-0.8-0.2-0.9-0.6l-3.1-7.7c-0.1-0.4-0.1-0.8,0.2-1c0.3-0.3,0.6-0.4,1-0.3l6.7,1.9
						l-1.2-4.4c-0.1-0.3,0-0.7,0.3-1c0.3-0.3,0.6-0.4,1-0.3l6.2,1.6c0.5,0.1,0.9,0.7,0.7,1.2c-0.1,0.5-0.7,0.9-1.2,0.7l-4.5-1.2
						l1.2,4.4c0.1,0.3,0,0.7-0.3,1c-0.3,0.3-0.6,0.4-1,0.3l-6.5-1.8l2.3,5.8c0.2,0.5,0,1.1-0.6,1.3C79.9,91.4,79.8,91.4,79.7,91.4z"
						/>
				</g>
			</g>
			<g>
				<g>
					<g>
						<path fill="#FFFFFF" d="M88.1,53.7l19.5-19.5c-0.3-0.6-0.4-1.2-0.5-1.9c-0.1-0.1-0.1-0.2-0.2-0.3L86.7,52.3
							c-1.1,1.1-1.1,2.9,0,4.1l21,21c0-0.9,0-1.8,0.2-2.6L88.1,54.9C87.8,54.6,87.8,54,88.1,53.7z"/>
					</g>
				</g>
				<g>
					<g>
						<path fill="#FFFFFF" d="M94.5,54.6L109.1,40c-0.1-0.8-0.1-1.7-0.3-2.5c0,0-0.1,0.1-0.1,0.1L93.1,53.2c-1,1-1,2.5,0,3.5
							l15.5,15.5c0.3-0.6,0.6-1.3,0.9-1.9l-15-15C94.4,55.1,94.4,54.8,94.5,54.6z"/>
					</g>
					<g>
						
							<path fill-rule="evenodd" fill="none" stroke="#FFFFFF" stroke-width="2" stroke-linecap="round" stroke-linejoin="round" stroke-miterlimit="10" d="
							M105.9,68.1"/>
					</g>
				</g>
				<g>
					<path fill="#FFFFFF" d="M106.3,56.2l4.5,1.3c0.2-0.7,0.2-1.3,0.2-2l-6.2-1.7c-0.4-0.1-0.8,0-1,0.3c-0.3,0.3-0.3,0.7-0.2,1
						l3.1,7.7c0.2,0.4,0.5,0.6,0.9,0.6c0.1,0,0.3,0,0.4-0.1c0.5-0.2,0.8-0.8,0.6-1.3L106.3,56.2z"/>
				</g>
			</g>
		</g>
	</g>
</g>
<g id="Layer_3">
	<g>
		<path fill="#FFFFFF" d="M56,112C25.1,112,0,86.9,0,56S25.1,0,56,0s56,25.1,56,56S86.9,112,56,112z M56,2C26.2,2,2,26.2,2,56
			s24.2,54,54,54s54-24.2,54-54S85.8,2,56,2z"/>
	</g>
</g>
</svg>
