<?xml version="1.0" encoding="utf-8"?>
<!-- Generator: Adobe Illustrator 18.1.1, SVG Export Plug-In . SVG Version: 6.00 Build 0)  -->
<svg version="1.2" baseProfile="tiny" id="Layer_2" xmlns="http://www.w3.org/2000/svg" xmlns:xlink="http://www.w3.org/1999/xlink"
	 x="0px" y="0px" viewBox="0 0 27.9 21.9" xml:space="preserve">
<g>
	<g>
		<path fill="#0061AB" d="M25.5,21.9h-23c-1.3,0-2.4-1.1-2.4-2.4v-17c0-0.7,0.3-1.3,0.8-1.8c0.4-0.3,0.9-0.3,1.3,0L14,9.7l11.9-9.1
			c0.4-0.3,0.9-0.3,1.3,0c0.5,0.5,0.8,1.1,0.8,1.8v17C27.9,20.8,26.8,21.9,25.5,21.9z M2,3v16.4c0,0.2,0.2,0.4,0.4,0.4h23
			c0.2,0,0.4-0.2,0.4-0.4V3l-11.3,8.7c-0.4,0.3-0.9,0.3-1.2,0L2,3z"/>
	</g>
	<g>
		<path fill="#0061AB" d="M26.4,2.4H1.5c-0.4,0-0.8-0.3-0.9-0.6c-0.1-0.4,0-0.8,0.3-1.1C1.3,0.2,1.8,0,2.4,0h23
			c0.6,0,1.2,0.2,1.6,0.6c0.3,0.3,0.4,0.7,0.3,1.1C27.2,2.1,26.8,2.4,26.4,2.4z"/>
	</g>
</g>
</svg>
