<?xml version="1.0" encoding="utf-8"?>
<!-- Generator: Adobe Illustrator 18.1.1, SVG Export Plug-In . SVG Version: 6.00 Build 0)  -->
<svg version="1.2" baseProfile="tiny" id="Layer_2" xmlns="http://www.w3.org/2000/svg" xmlns:xlink="http://www.w3.org/1999/xlink"
	 x="0px" y="0px" viewBox="0 0 25.1 34.5" xml:space="preserve">
<g>
	<path fill="#0061AB" d="M12.5,34.5c-0.3,0-0.5-0.1-0.7-0.3C11.3,33.7,0,21.9,0,13.7C0,5.6,5.2,0,12.5,0s12.5,5.6,12.5,13.7
		c0,8.2-11.3,20-11.8,20.5C13.1,34.4,12.8,34.5,12.5,34.5z M12.5,2C6.3,2,2,6.8,2,13.7c0,6.3,8.1,15.6,10.5,18.4
		c2.5-2.7,10.5-12.1,10.5-18.4C23.1,6.8,18.8,2,12.5,2z M12.6,19.5c-3.5,0-6.3-2.8-6.3-6.3S9.2,7,12.6,7s6.3,2.8,6.3,6.3
		S16.1,19.5,12.6,19.5z M12.6,9c-2.4,0-4.3,1.9-4.3,4.3c0,2.4,1.9,4.3,4.3,4.3c2.4,0,4.3-1.9,4.3-4.3C16.9,10.9,15,9,12.6,9z"/>
</g>
</svg>
