<?xml version="1.0" encoding="utf-8"?>
<!-- Generator: Adobe Illustrator 18.1.1, SVG Export Plug-In . SVG Version: 6.00 Build 0)  -->
<svg version="1.2" baseProfile="tiny" id="Layer_2" xmlns="http://www.w3.org/2000/svg" xmlns:xlink="http://www.w3.org/1999/xlink"
	 x="0px" y="0px" viewBox="0 0 19.3 34.4" xml:space="preserve">
<g>
	<g>
		<g>
			<path fill="#0061AB" d="M16.8,34.4H2.5c-1.4,0-2.5-1.1-2.5-2.5v-7.1c0-0.6,0.4-1,1-1h17.3c0.6,0,1,0.4,1,1v7.1
				C19.3,33.3,18.2,34.4,16.8,34.4z M2,25.9v6.1c0,0.3,0.2,0.5,0.5,0.5h14.3c0.3,0,0.5-0.2,0.5-0.5v-6.1H2z"/>
		</g>
		<g>
			<path fill="#0061AB" d="M18.3,8.4H1c-0.6,0-1-0.4-1-1V2.5C0,1.1,1.1,0,2.5,0h14.3c1.4,0,2.5,1.1,2.5,2.5v4.9
				C19.3,8,18.9,8.4,18.3,8.4z M2,6.4h15.3V2.5c0-0.3-0.2-0.5-0.5-0.5H2.5C2.2,2,2,2.2,2,2.5V6.4z"/>
		</g>
	</g>
	<g>
		<path fill="#0061AB" d="M12.3,5.1H7.4c-0.6,0-1-0.4-1-1s0.4-1,1-1h4.9c0.6,0,1,0.4,1,1S12.8,5.1,12.3,5.1z"/>
	</g>
	<g>
		<path fill="#0061AB" d="M9.7,31.8c-1.4,0-2.5-1.1-2.5-2.5c0-1.4,1.1-2.5,2.5-2.5c1.4,0,2.5,1.1,2.5,2.5
			C12.1,30.7,11,31.8,9.7,31.8z M9.7,28.9c-0.2,0-0.5,0.2-0.5,0.5s0.2,0.5,0.5,0.5s0.5-0.2,0.5-0.5S9.9,28.9,9.7,28.9z"/>
	</g>
	<g>
		<path fill="#0061AB" d="M1,27.9c-0.6,0-1-0.4-1-1V5.4c0-0.6,0.4-1,1-1s1,0.4,1,1v21.6C2,27.5,1.6,27.9,1,27.9z"/>
	</g>
	<g>
		<path fill="#0061AB" d="M18.3,28.1c-0.6,0-1-0.4-1-1V5.6c0-0.6,0.4-1,1-1s1,0.4,1,1v21.6C19.3,27.7,18.9,28.1,18.3,28.1z"/>
	</g>
</g>
</svg>
